<?xml version="1.0" encoding="utf-8"?>
<!-- Generator: Adobe Illustrator 19.0.0, SVG Export Plug-In . SVG Version: 6.00 Build 0)  -->
<svg version="1.1" id="Layer_1" xmlns="http://www.w3.org/2000/svg" xmlns:xlink="http://www.w3.org/1999/xlink" x="0px" y="0px"
	 viewBox="0 0 1190.6 841.9" style="enable-background:new 0 0 1190.6 841.9;" xml:space="preserve">
<style type="text/css">
	.st0{fill:#E16728;}
	.st1{fill:none;stroke:#994711;stroke-miterlimit:10;}
	.st2{fill:none;stroke:#A3A3A3;stroke-miterlimit:10;}
	.st3{fill:none;stroke:#FCFCFC;stroke-miterlimit:10;}
	.st4{fill:#FFFFFF;stroke:#FCFCFC;stroke-miterlimit:10;}
	.st5{fill:#0B0A0A;}
	.st6{fill:#F2DF41;}
	.st7{fill:#FAD413;}
	.st8{fill:#3A95B3;}
	.st9{fill:#C48F9D;}
	.st10{fill:#EFD6A6;}
	.st11{fill:#FCFCFC;}
	.st12{fill:#E44132;}
	.st13{fill:#AD2920;}
	.st14{fill:#E59F40;}
	.st15{fill:#F0D097;}
	.st16{fill:#702A2A;}
	.st17{fill:#E71811;}
	.st18{fill:#74A346;}
	.st19{fill:#F79D0F;}
	.st20{fill:#FBFCFA;}
	.st21{fill:#2772AF;}
	.st22{fill:#FFFFFF;stroke:#F5EA17;stroke-width:8;stroke-miterlimit:10;}
	.st23{fill:#4C8036;}
	.st24{fill:#689746;}
	.st25{fill:#EEE06D;}
	.st26{fill:#FFFFFF;}
	.st27{fill:#ED330C;}
	.st28{fill:#C6602E;}
	.st29{fill:#282828;}
	.st30{fill:#2A87BA;}
</style>
<g id="XMLID_760_">
	<g id="XMLID_434_">
		<polygon id="XMLID_460_" class="st1" points="287.6,261.4 287.6,750.6 928.4,557.6 928.4,66.9 287.6,260.7 		"/>
		<polygon id="XMLID_459_" class="st1" points="348,339.4 348,615.8 543.9,556 543.9,279.9 		"/>
		<polygon id="XMLID_449_" class="st1" points="576.9,270.7 576.9,290.1 766.2,233.6 766.2,213.5 		"/>
		<polygon id="XMLID_448_" class="st1" points="576.9,309.1 576.9,325.8 676.5,295.9 676.5,278.9 576.9,308.7 		"/>
		<polygon id="XMLID_447_" class="st1" points="690.5,274.6 690.5,291.9 766.2,269 766.2,251.5 		"/>
		<polygon id="XMLID_446_" class="st1" points="576.9,344.4 576.9,363.7 766.2,307.2 766.2,287.1 		"/>
		<polygon id="XMLID_445_" class="st1" points="699.1,363.9 699.1,455.3 576.9,492.3 576.9,401.2 		"/>
		<polygon id="XMLID_444_" class="st1" points="727.3,357.2 727.3,387.8 766.2,375.7 766.2,345 		"/>
		<polygon id="XMLID_443_" class="st1" points="727.3,416.4 727.3,447 766.2,434.8 766.2,404.1 		"/>
		<polygon id="XMLID_442_" class="st1" points="607.3,512.9 607.3,537.4 699.1,509 699.1,485 		"/>
		<polygon id="XMLID_441_" class="st1" points="348,638.3 410.3,619.6 410.3,694 348,712.8 		"/>
		<polygon id="XMLID_440_" class="st1" points="439.4,611.4 501.7,592.7 501.7,667 439.4,685.9 		"/>
		<polygon id="XMLID_438_" class="st1" points="539.3,580.8 601.6,562 601.6,636.4 539.3,655.3 		"/>
		<polygon id="XMLID_437_" class="st1" points="633.7,552.8 695.9,534 695.9,608.4 633.7,627.3 		"/>
		<polygon id="XMLID_436_" class="st1" points="734.3,522.3 796.6,503.6 796.6,578 734.3,596.8 		"/>
		<polygon id="XMLID_435_" class="st1" points="777.8,168.9 919.4,125.7 919.4,313.4 778.1,355.8 		"/>
	</g>
	<polygon id="XMLID_433_" class="st2" points="789.7,180.2 789.7,186.4 862.8,164.2 862.8,158.2 	"/>
	<polygon id="XMLID_432_" class="st2" points="789.7,236.3 789.7,242.5 870.4,217.9 870.4,211.9 	"/>
	<polygon id="XMLID_431_" class="st2" points="842,182.6 842,188.8 909.9,168 909.9,162 	"/>
	<polygon id="XMLID_430_" class="st2" points="871.6,155.5 871.6,161.7 909.9,150 909.9,144 	"/>
	<polygon id="XMLID_429_" class="st2" points="789.7,198.2 789.7,204.4 832.6,191.4 832.6,185.4 	"/>
	<polygon id="XMLID_386_" class="st2" points="789.7,219.8 789.7,226.1 845,209.2 845,203.2 	"/>
	<polygon id="XMLID_374_" class="st2" points="871.6,195.2 871.6,201.5 909.9,189.7 909.9,183.7 	"/>
	<polygon id="XMLID_373_" class="st2" points="878.5,209.6 878.5,215.8 909.9,206.2 909.9,200.2 	"/>
	<polygon id="XMLID_372_" class="st2" points="878.5,229.3 878.5,235.6 909.9,225.9 909.9,219.9 	"/>
	<polygon id="XMLID_371_" class="st2" points="789.7,256.2 789.7,262.4 870.4,237.8 870.4,231.8 	"/>
	<polygon id="XMLID_370_" class="st2" points="789.7,272.9 789.7,279.2 845,262.3 845,256.3 	"/>
	<polygon id="XMLID_369_" class="st2" points="789.7,290.1 789.7,296.3 845,279.5 845,273.5 	"/>
	<polygon id="XMLID_368_" class="st2" points="853.6,253.7 853.6,260 877.1,252.7 877.1,246.7 	"/>
	<polygon id="XMLID_367_" class="st2" points="881.8,245.4 881.8,251.6 909.9,242.7 909.9,236.7 	"/>
	<polygon id="XMLID_366_" class="st2" points="853.6,271.4 853.6,277.6 877.1,270.4 877.1,264.4 	"/>
	<polygon id="XMLID_355_" class="st2" points="881.8,263.1 881.8,269.3 909.9,260.4 909.9,254.4 	"/>
	<polygon id="XMLID_385_" class="st3" points="294.5,269.5 294.5,758.6 935.2,565.6 935.2,74.9 294.5,268.8 	"/>
	<polygon id="XMLID_384_" class="st4" points="354.9,347.5 354.9,623.8 550.8,564.1 550.8,287.9 	"/>
	<polygon id="XMLID_383_" class="st4" points="583.8,278.8 583.8,298.1 773.1,241.6 773.1,221.5 	"/>
	<polygon id="XMLID_382_" class="st4" points="583.8,317.1 583.8,333.9 683.4,303.9 683.4,286.9 583.8,316.7 	"/>
	<polygon id="XMLID_381_" class="st4" points="697.4,282.6 697.4,299.9 773.1,277 773.1,259.5 	"/>
	<polygon id="XMLID_380_" class="st4" points="583.8,352.5 583.8,371.8 773.1,315.3 773.1,295.2 	"/>
	<polygon id="XMLID_379_" class="st5" points="706,371.9 706,463.3 583.8,500.4 583.8,409.3 	"/>
	<polygon id="XMLID_378_" class="st4" points="734.2,365.3 734.2,395.9 773.1,383.7 773.1,353 	"/>
	<polygon id="XMLID_377_" class="st4" points="734.2,424.4 734.2,455 773.1,442.9 773.1,412.2 	"/>
	<polygon id="XMLID_376_" class="st6" points="614.2,521 614.2,545.5 706,517.1 706,493 	"/>
	<polygon id="XMLID_375_" class="st7" points="354.9,646.4 417.2,627.6 417.2,702 354.9,720.9 	"/>
	<polygon id="XMLID_365_" class="st7" points="446.3,619.4 508.6,600.7 508.6,675.1 446.3,693.9 	"/>
	<polygon id="XMLID_364_" class="st7" points="546.2,588.8 608.5,570.1 608.5,644.5 546.2,663.3 	"/>
	<polygon id="XMLID_363_" class="st4" points="640.5,560.8 702.8,542.1 702.8,616.5 640.5,635.3 	"/>
	<polygon id="XMLID_362_" class="st7" points="741.2,530.4 803.4,511.7 803.4,586.1 741.2,604.9 	"/>
	<polygon id="XMLID_361_" class="st5" points="784.7,177 926.3,133.8 926.3,321.4 784.9,363.9 	"/>
	<polygon id="XMLID_360_" class="st8" points="796.6,188.2 796.6,194.5 869.7,172.3 869.7,166.3 	"/>
	<polygon id="XMLID_359_" class="st8" points="796.6,244.3 796.6,250.6 877.3,226 877.3,220 	"/>
	<polygon id="XMLID_358_" class="st9" points="848.9,190.6 848.9,196.9 916.7,176.1 916.7,170.1 	"/>
	<polygon id="XMLID_357_" class="st10" points="878.5,163.5 878.5,169.8 916.7,158.1 916.7,152.1 	"/>
	<polygon id="XMLID_356_" class="st8" points="796.6,206.2 796.6,212.5 839.5,199.5 839.5,193.5 	"/>
	<polygon id="XMLID_334_" class="st10" points="796.6,227.9 796.6,234.1 851.9,217.3 851.9,211.3 	"/>
	<polygon id="XMLID_333_" class="st10" points="878.5,203.3 878.5,209.5 916.7,197.8 916.7,191.8 	"/>
	<polygon id="XMLID_332_" class="st9" points="885.4,217.6 885.4,223.9 916.7,214.2 916.7,208.2 	"/>
	<polygon id="XMLID_331_" class="st10" points="885.4,237.4 885.4,243.6 916.7,234 916.7,228 	"/>
	<polygon id="XMLID_330_" class="st10" points="796.6,264.2 796.6,270.5 877.3,245.9 877.3,239.9 	"/>
	<polygon id="XMLID_329_" class="st8" points="796.6,281 796.6,287.2 851.9,270.4 851.9,264.4 	"/>
	<polygon id="XMLID_328_" class="st10" points="796.6,298.1 796.6,304.4 851.9,287.6 851.9,281.6 	"/>
	<polygon id="XMLID_327_" class="st8" points="860.4,261.8 860.4,268 884,260.7 884,254.7 	"/>
	<polygon id="XMLID_326_" class="st9" points="888.6,253.4 888.6,259.7 916.7,250.8 916.7,244.8 	"/>
	<polygon id="XMLID_325_" class="st8" points="860.4,279.5 860.4,285.7 884,278.4 884,272.4 	"/>
	<polygon id="XMLID_324_" class="st9" points="888.6,271.1 888.6,277.4 916.7,268.5 916.7,262.5 	"/>
	<line id="XMLID_315_" class="st3" x1="294.5" y1="288.3" x2="936.3" y2="91.9"/>
	<polygon id="XMLID_314_" class="st11" points="773.6,172.4 773.6,174.5 772.6,174.9 355.4,302.5 354.4,302.8 354.4,300.7 
		355.4,300.4 772.6,172.7 	"/>
	<polygon id="XMLID_313_" class="st11" points="355.4,300.4 355.4,302.5 354.4,302.8 354.4,300.7 	"/>
	<polygon id="XMLID_312_" class="st11" points="773.6,172.4 773.6,174.5 772.6,174.9 772.6,172.7 	"/>
	<polygon id="XMLID_311_" class="st11" points="773.6,180.9 773.6,183.1 772.6,183.4 355.4,311.1 354.4,311.4 354.4,309.2 
		355.4,308.9 772.6,181.3 	"/>
	<polygon id="XMLID_310_" class="st11" points="773.6,189.5 773.6,191.7 772.6,192 355.4,319.7 354.4,320 354.4,317.8 355.4,317.5 
		772.6,189.8 	"/>
	<g id="XMLID_279_">
		<path id="XMLID_309_" class="st11" d="M306,275.6c0,1.7-1.4,3.5-3.2,3.9s-3.2-0.7-3.2-2.4s1.4-3.5,3.2-3.9S306,273.9,306,275.6z"
			/>
		<path id="XMLID_308_" class="st11" d="M317.1,272.5c0,1.7-1.4,3.5-3.2,3.9c-1.8,0.4-3.2-0.7-3.2-2.4s1.4-3.5,3.2-3.9
			C315.7,269.7,317.1,270.8,317.1,272.5z"/>
		<path id="XMLID_307_" class="st11" d="M327.9,269.3c0,1.7-1.4,3.5-3.2,3.9c-1.8,0.4-3.2-0.7-3.2-2.4s1.4-3.5,3.2-3.9
			C326.4,266.5,327.9,267.6,327.9,269.3z"/>
	</g>
	<g id="XMLID_274_">
		<path id="XMLID_323_" class="st12" d="M766.9,544.2c0,0,4.8-1.7,7.5-0.5c2.7,1.2,2.6,4.6,0.1,7.2c-2.5,2.7-4.7,3.8-9.2,3.6
			c-4.4-0.2-5.1-4.8-2.7-7.3S765.5,544.9,766.9,544.2z"/>
		<path id="XMLID_304_" class="st12" d="M782.5,545.5c0,0,4.8-1.7,7.5-0.5c2.7,1.2,2.6,4.6,0.1,7.2c-2.5,2.7-4.7,3.8-9.2,3.6
			c-4.4-0.2-5.1-4.8-2.7-7.3S781.2,546.2,782.5,545.5z"/>
		<g id="XMLID_275_">
			<path id="XMLID_301_" class="st13" d="M783.1,549.2c0,0,0.4-2.7-0.6-2.7c-0.9-0.1-1.9,0.5-3.1,1.9s-1.5,1.9,0.6,1.7
				S783.1,549.7,783.1,549.2z"/>
			<path id="XMLID_300_" class="st13" d="M782.1,550.9c0,0-0.7-0.6-2.4,0.3c-1.8,0.9-1.3,2.4,0,2.2c1.3-0.1,2.6-1,2.8-1.7
				C782.7,551.1,782.1,550.9,782.1,550.9z"/>
			<path id="XMLID_299_" class="st13" d="M785,551.6c0,0-0.9-0.6-1.4,0.4s-1.6,1.1-0.8,1.7c0.8,0.6,2.2,0.5,2.9-0.2
				C786.2,552.8,785.6,551.8,785,551.6z"/>
			<path id="XMLID_298_" class="st13" d="M785.3,548c0,0,1.1-1,1.3-2c0.2-0.9-0.2-0.9-1-0.6s-1.4,0.2-1.3,1.1
				C784.3,547.4,784.5,548.9,785.3,548z"/>
			<path id="XMLID_297_" class="st13" d="M788.7,546c0,0-1.4,0.3-2.1,1.7c-0.8,1.4-0.5,1.5,1.1,0.9S790.2,546.3,788.7,546z"/>
			<path id="XMLID_296_" class="st13" d="M788.9,549c0,0-2.6,1-2.2,1.8c0.4,0.8,1.5,2,2.8,1.1s1.4-2.4,0.5-2.8
				C789.1,548.6,788.9,549,788.9,549z"/>
			<path id="XMLID_295_" class="st13" d="M770.7,549.5c0,0,1.8-1.8,3.2-1.6s-0.1,3.3-1.1,3.7S770,550.1,770.7,549.5z"/>
			<path id="XMLID_281_" class="st13" d="M769.3,550.9c0,0-0.9-1-1.4-0.1c-0.5,0.8-1.7,1.8-0.9,2.3s2.8,0.3,3.1-0.8
				C770.2,551.3,769.3,550.9,769.3,550.9z"/>
			<path id="XMLID_280_" class="st13" d="M766.5,550c0,0-1.4-1-2.9,0.1c-1.5,1-1.1,3,0.9,2.2S767.6,550.4,766.5,550z"/>
			<path id="XMLID_278_" class="st13" d="M763.3,548.9c0.1,0.2,0.9-0.6,2.3-0.5s1.9,0.7,1.9-0.7s0.1-2.9-1.2-2.5
				S762.6,548,763.3,548.9z"/>
			<path id="XMLID_277_" class="st13" d="M769,547.2c0,0-0.8-2.5,0.2-2.8s1.8-0.6,1.6,0.5C770.6,546,770.2,547.9,769,547.2z"/>
			<path id="XMLID_276_" class="st13" d="M770.5,547.6c0,0,0.2-1.3,1.7-2c1.6-0.7,2.8-0.3,1.9,0.7s-1.9,1.3-2.8,1.6
				S770.5,547.6,770.5,547.6z"/>
		</g>
	</g>
	<g id="XMLID_250_">
		<path id="XMLID_273_" class="st12" d="M763.1,559.1c0,0,4.8-1.7,7.5-0.5c2.7,1.2,2.6,4.6,0.1,7.2s-4.7,3.8-9.2,3.6
			c-4.4-0.2-5.1-4.8-2.7-7.3S761.7,559.8,763.1,559.1z"/>
		<path id="XMLID_266_" class="st12" d="M778.7,560.3c0,0,4.8-1.7,7.5-0.5c2.7,1.2,2.6,4.6,0.1,7.2c-2.5,2.7-4.7,3.8-9.2,3.6
			c-4.4-0.2-5.1-4.8-2.7-7.3C776.9,561,777.3,561.1,778.7,560.3z"/>
		<g id="XMLID_253_">
			<path id="XMLID_265_" class="st13" d="M779.3,564.1c0,0,0.4-2.7-0.6-2.7c-0.9-0.1-1.9,0.5-3.1,1.9s-1.5,1.9,0.6,1.7
				C778.2,564.7,779.2,564.6,779.3,564.1z"/>
			<path id="XMLID_264_" class="st13" d="M778.2,565.8c0,0-0.7-0.6-2.4,0.3c-1.8,0.9-1.3,2.4,0,2.2c1.3-0.1,2.6-1,2.8-1.7
				C778.9,566,778.2,565.8,778.2,565.8z"/>
			<path id="XMLID_263_" class="st13" d="M781.2,566.5c0,0-0.9-0.6-1.4,0.4c-0.6,1-1.6,1.1-0.8,1.7s2.2,0.5,2.9-0.2
				C782.4,567.7,781.7,566.6,781.2,566.5z"/>
			<path id="XMLID_262_" class="st13" d="M781.4,562.9c0,0,1.1-1,1.3-2c0.2-0.9-0.2-0.9-1-0.6s-1.4,0.2-1.3,1.1
				C780.5,562.3,780.7,563.8,781.4,562.9z"/>
			<path id="XMLID_261_" class="st13" d="M784.9,560.8c0,0-1.4,0.3-2.1,1.7c-0.8,1.4-0.5,1.5,1.1,0.9S786.4,561.2,784.9,560.8z"/>
			<path id="XMLID_260_" class="st13" d="M785,563.8c0,0-2.6,1-2.2,1.8s1.5,2,2.8,1.1s1.4-2.4,0.5-2.8
				C785.3,563.5,785,563.8,785,563.8z"/>
			<path id="XMLID_259_" class="st13" d="M766.9,564.3c0,0,1.8-1.8,3.2-1.6s-0.1,3.3-1.1,3.7S766.1,565,766.9,564.3z"/>
			<path id="XMLID_258_" class="st13" d="M765.5,565.8c0,0-0.9-1-1.4-0.1c-0.5,0.8-1.7,1.8-0.9,2.3s2.8,0.3,3.1-0.8
				C766.4,566.2,765.5,565.8,765.5,565.8z"/>
			<path id="XMLID_257_" class="st13" d="M762.7,564.9c0,0-1.4-1-2.9,0.1c-1.5,1-1.1,3,0.9,2.2S763.7,565.3,762.7,564.9z"/>
			<path id="XMLID_256_" class="st13" d="M759.5,563.8c0.1,0.2,0.9-0.6,2.3-0.5s1.9,0.7,1.9-0.7s0.1-2.9-1.2-2.5
				S758.8,562.8,759.5,563.8z"/>
			<path id="XMLID_255_" class="st13" d="M765.2,562.1c0,0-0.8-2.5,0.2-2.8c1.1-0.3,1.8-0.6,1.6,0.5
				C766.8,560.9,766.4,562.7,765.2,562.1z"/>
			<path id="XMLID_254_" class="st13" d="M766.7,562.4c0,0,0.2-1.3,1.7-2c1.6-0.7,2.8-0.3,1.9,0.7s-1.9,1.3-2.8,1.6
				S766.7,562.4,766.7,562.4z"/>
		</g>
	</g>
	<g id="XMLID_205_">
		<path id="XMLID_230_" class="st14" d="M367.2,671.7c0,0,8.2-8.3,22.6-10.4c14.4-2.1,20.8,3.6,20.5,8.3s-0.2,9.9-14.5,15.6
			c-14.2,5.7-27,6.4-31.5,3.3S361.7,677,367.2,671.7z"/>
		<path id="XMLID_227_" class="st15" d="M369.8,676.2l-2.7-0.2c-0.1,0-0.2-0.1-0.2-0.2v-0.3c0-0.1,0.1-0.2,0.2-0.2l2.7,0.2
			c0.1,0,0.2,0.1,0.2,0.2v0.3C370,676.2,369.9,676.3,369.8,676.2z"/>
		<path id="XMLID_226_" class="st15" d="M374.2,675.4l-2-1.9c-0.1-0.1-0.1-0.2,0-0.3l0.2-0.2c0.1-0.1,0.2-0.1,0.3,0l2,1.9
			c0.1,0.1,0.1,0.2,0,0.3l-0.2,0.2C374.4,675.5,374.3,675.5,374.2,675.4z"/>
		<path id="XMLID_225_" class="st15" d="M368.3,680.8l-2.5,0.8c-0.1,0-0.2,0-0.2-0.1l-0.1-0.3c0-0.1,0-0.2,0.1-0.2l2.5-0.8
			c0.1,0,0.2,0,0.2,0.1l0.1,0.3C368.4,680.7,368.4,680.8,368.3,680.8z"/>
		<path id="XMLID_224_" class="st15" d="M374.8,678.8l-2.7-0.5c-0.1,0-0.2-0.1-0.2-0.2l0-0.3c0-0.1,0.1-0.2,0.2-0.1l2.7,0.5
			c0.1,0,0.2,0.1,0.2,0.2l0,0.3C375,678.8,374.9,678.9,374.8,678.8z"/>
		<path id="XMLID_223_" class="st15" d="M378.3,667.6l-2.5,0.8c-0.1,0-0.2,0-0.2-0.1l-0.1-0.3c0-0.1,0-0.2,0.1-0.2l2.5-0.8
			c0.1,0,0.2,0,0.2,0.1l0.1,0.3C378.4,667.5,378.4,667.6,378.3,667.6z"/>
		<path id="XMLID_222_" class="st15" d="M382.5,674.7l-2.5,0.8c-0.1,0-0.2,0-0.2-0.1l-0.1-0.3c0-0.1,0-0.2,0.1-0.2l2.5-0.8
			c0.1,0,0.2,0,0.2,0.1l0.1,0.3C382.7,674.6,382.6,674.7,382.5,674.7z"/>
		<path id="XMLID_221_" class="st15" d="M392,665.3l-2.5,0.8c-0.1,0-0.2,0-0.2-0.1l-0.1-0.3c0-0.1,0-0.2,0.1-0.2l2.5-0.8
			c0.1,0,0.2,0,0.2,0.1l0.1,0.3C392.1,665.1,392.1,665.2,392,665.3z"/>
		<path id="XMLID_220_" class="st15" d="M397.3,669.1l-2.5,0.8c-0.1,0-0.2,0-0.2-0.1l-0.1-0.3c0-0.1,0-0.2,0.1-0.2l2.5-0.8
			c0.1,0,0.2,0,0.2,0.1l0.1,0.3C397.4,669,397.4,669.1,397.3,669.1z"/>
		<path id="XMLID_216_" class="st15" d="M389.6,680.9l-2.5,0.8c-0.1,0-0.2,0-0.2-0.1l-0.1-0.3c0-0.1,0-0.2,0.1-0.2l2.5-0.8
			c0.1,0,0.2,0,0.2,0.1l0.1,0.3C389.7,680.7,389.7,680.9,389.6,680.9z"/>
		<path id="XMLID_215_" class="st15" d="M407.1,669.5l-2.5,0.8c-0.1,0-0.2,0-0.2-0.1l-0.1-0.3c0-0.1,0-0.2,0.1-0.2l2.5-0.8
			c0.1,0,0.2,0,0.2,0.1l0.1,0.3C407.2,669.4,407.2,669.5,407.1,669.5z"/>
		<path id="XMLID_214_" class="st15" d="M403.8,665.4l-2.5,0.8c-0.1,0-0.2,0-0.2-0.1l-0.1-0.3c0-0.1,0-0.2,0.1-0.2l2.5-0.8
			c0.1,0,0.2,0,0.2,0.1l0.1,0.3C403.9,665.3,403.9,665.4,403.8,665.4z"/>
		<path id="XMLID_212_" class="st15" d="M400.3,678.5l-2.5,0.8c-0.1,0-0.2,0-0.2-0.1l-0.1-0.3c0-0.1,0-0.2,0.1-0.2l2.5-0.8
			c0.1,0,0.2,0,0.2,0.1l0.1,0.3C400.4,678.4,400.4,678.5,400.3,678.5z"/>
		<path id="XMLID_211_" class="st15" d="M374.6,685.8l-2.5,0.8c-0.1,0-0.2,0-0.2-0.1l-0.1-0.3c0-0.1,0-0.2,0.1-0.2l2.5-0.8
			c0.1,0,0.2,0,0.2,0.1l0.1,0.3C374.8,685.7,374.7,685.8,374.6,685.8z"/>
		<path id="XMLID_210_" class="st15" d="M388,670l-2.6-0.8c-0.1,0-0.2-0.1-0.1-0.2l0.1-0.3c0-0.1,0.1-0.2,0.2-0.1l2.6,0.8
			c0.1,0,0.2,0.1,0.1,0.2l-0.1,0.3C388.2,670,388.1,670.1,388,670z"/>
		<path id="XMLID_209_" class="st15" d="M388.5,674.5l-1.4,2.2c-0.1,0.1-0.2,0.1-0.3,0l-0.2-0.2c-0.1-0.1-0.1-0.2-0.1-0.3l1.4-2.2
			c0.1-0.1,0.2-0.1,0.3,0l0.2,0.2C388.6,674.3,388.6,674.4,388.5,674.5z"/>
		<path id="XMLID_208_" class="st15" d="M400.9,672.9l-1.4,2.2c-0.1,0.1-0.2,0.1-0.3,0l-0.2-0.2c-0.1-0.1-0.1-0.2-0.1-0.3l1.4-2.2
			c0.1-0.1,0.2-0.1,0.3,0l0.2,0.2C400.9,672.7,400.9,672.8,400.9,672.9z"/>
		<path id="XMLID_207_" class="st15" d="M381.9,683.6l-2.6-0.8c-0.1,0-0.2-0.1-0.1-0.2l0.1-0.3c0-0.1,0.1-0.2,0.2-0.1l2.6,0.8
			c0.1,0,0.2,0.1,0.1,0.2l-0.1,0.3C382.1,683.5,382,683.6,381.9,683.6z"/>
		<path id="XMLID_206_" class="st15" d="M396,677.1l-2.6-0.8c-0.1,0-0.2-0.1-0.1-0.2l0.1-0.3c0-0.1,0.1-0.2,0.2-0.1l2.6,0.8
			c0.1,0,0.2,0.1,0.1,0.2l-0.1,0.3C396.2,677.1,396.1,677.2,396,677.1z"/>
	</g>
	<g id="XMLID_191_">
		<path id="XMLID_204_" class="st14" d="M530.9,453.8c0,0,15.4,10.3,0.5,27.1c-15,16.8-69.1,32.2-110.6,30.1s-45.9-22.8-31.4-36.6
			C403.9,460.4,530.9,453.8,530.9,453.8z"/>
		<polygon id="XMLID_201_" class="st6" points="393.2,479.6 384.9,497 504.4,487.7 524.6,458.7 		"/>
		<path id="XMLID_198_" class="st16" d="M385.6,464.9c0,0-4.9,12.8-2,16.7s41.8,13.4,100.8-3.6c59-17,54.7-26.3,54.5-30
			c-0.2-3.7-6.1-12.3-12.4-9.7C520.2,440.8,385.6,464.9,385.6,464.9z"/>
		<path id="XMLID_194_" class="st17" d="M391.1,462c0,0-8.2,14.6,24.7,13.4s73-11.2,96.2-21.5c23.3-10.3,26.4-26.8,10.1-25.3
			C505.9,430,391.1,462,391.1,462z"/>
		<path id="XMLID_193_" class="st18" d="M389,445c0,0-11.1,1.6-11.6,6.3c-0.5,4.7,10.2-0.6,7.8,3s-9.8,10.2-5.6,16
			c4.2,5.8,5.7-1.2,14.1-5.6c8.4-4.4,15.7-6.4,15.6-1.4c0,4.9,12.7,4.1,20.8-0.1c8.1-4.2,10-6.6,14.3-2.5s10.9,3.9,17.9-1.6
			c7-5.5,10.3-8.1,22-6.1c11.7,2,17.6-2.9,16.1-5.7c-1.5-2.8,2.7-6,12.1-6.5s17.9-1.4,15-7.2c-2.9-5.8,18.8-9.2,13.5-14.3
			s-16.3-1.9-16.3-1.9L389,445z"/>
		<path id="XMLID_192_" class="st14" d="M425.1,396.3c0,0-20.2,6.5-36.4,25.1c-16.2,18.6-15.1,29.2,2.9,31.1s48.3,3.1,92.8-10.4
			c44.5-13.4,56.8-23.2,50.9-36c-5.8-12.8-13.6-26.2-53.4-23.1C450.7,385.5,425.1,396.3,425.1,396.3z"/>
	</g>
	<path id="XMLID_190_" class="st15" d="M417.5,420.1l-12.2,4c-0.1,0-0.2,0-0.2-0.1l-1-2.4c0-0.1,0-0.2,0.1-0.2l12.2-4
		c0.1,0,0.2,0,0.2,0.1l1,2.4C417.6,419.9,417.6,420,417.5,420.1z"/>
	<path id="XMLID_189_" class="st15" d="M410.7,443.3l-13.1-2.2c-0.1,0-0.2-0.1-0.2-0.2l0.2-2.5c0-0.1,0.1-0.2,0.2-0.2l13.1,2.2
		c0.1,0,0.2,0.1,0.2,0.2l-0.2,2.5C410.9,443.3,410.8,443.3,410.7,443.3z"/>
	<path id="XMLID_99_" class="st15" d="M459.6,405.9l-13,1c-0.1,0-0.2-0.1-0.2-0.2l-0.4-2.5c0-0.1,0.1-0.2,0.2-0.2l13-1
		c0.1,0,0.2,0.1,0.2,0.2l0.4,2.5C459.7,405.8,459.7,405.9,459.6,405.9z"/>
	<path id="XMLID_96_" class="st15" d="M504.5,415.7l-12.2,4c-0.1,0-0.2,0-0.2-0.1l-1-2.4c0-0.1,0-0.2,0.1-0.2l12.2-4
		c0.1,0,0.2,0,0.2,0.1l1,2.4C504.6,415.6,504.6,415.7,504.5,415.7z"/>
	<path id="XMLID_95_" class="st15" d="M490.5,394.2l-13.1,0.3c-0.1,0-0.2-0.1-0.2-0.2l-0.3-2.5c0-0.1,0.1-0.2,0.2-0.2l13.1-0.3
		c0.1,0,0.2,0.1,0.2,0.2l0.3,2.5C490.7,394.1,490.6,394.2,490.5,394.2z"/>
	<path id="XMLID_94_" class="st15" d="M523.5,403.2l-9.3,8.6c-0.1,0.1-0.2,0.1-0.3,0l-1.8-1.9c-0.1-0.1-0.1-0.2,0-0.3l9.3-8.6
		c0.1-0.1,0.2-0.1,0.3,0l1.8,1.9C523.6,403,523.6,403.1,523.5,403.2z"/>
	<path id="XMLID_93_" class="st15" d="M431.6,438.9l-11.9-6.6c-0.1-0.1-0.1-0.2-0.1-0.3l1.1-2.2c0-0.1,0.2-0.1,0.2-0.1l11.9,6.6
		c0.1,0.1,0.1,0.2,0.1,0.3l-1.1,2.2C431.8,438.9,431.7,438.9,431.6,438.9z"/>
	<path id="XMLID_92_" class="st15" d="M448.4,418l-12.9,1.6c-0.1,0-0.2-0.1-0.2-0.2l-0.5-2.5c0-0.1,0-0.2,0.1-0.2l12.9-1.6
		c0.1,0,0.2,0.1,0.2,0.2l0.5,2.5C448.5,417.8,448.5,417.9,448.4,418z"/>
	<path id="XMLID_91_" class="st15" d="M466.3,431.3l-13.2-0.8c-0.1,0-0.2-0.1-0.2-0.2l-0.1-2.5c0-0.1,0.1-0.2,0.2-0.2l13.2,0.8
		c0.1,0,0.2,0.1,0.2,0.2l0.1,2.5C466.5,431.2,466.4,431.3,466.3,431.3z"/>
	<path id="XMLID_90_" class="st15" d="M427.2,405.1l-11.7,5.1c-0.1,0-0.2,0-0.3-0.1l-1.1-2.3c0-0.1,0-0.2,0.1-0.2l11.7-5.1
		c0.1,0,0.2,0,0.3,0.1l1.1,2.3C427.3,404.9,427.3,405,427.2,405.1z"/>
	<path id="XMLID_89_" class="st15" d="M483.1,407.1l-10.6,6.9c-0.1,0.1-0.2,0-0.3-0.1l-1.5-2.1c-0.1-0.1,0-0.2,0-0.3l10.6-6.9
		c0.1-0.1,0.2,0,0.3,0.1l1.5,2.1C483.2,407,483.2,407.1,483.1,407.1z"/>
	<path id="XMLID_88_" class="st15" d="M513.1,396.3l-12.2,4c-0.1,0-0.2,0-0.2-0.1l-1-2.4c0-0.1,0-0.2,0.1-0.2l12.2-4
		c0.1,0,0.2,0,0.2,0.1l1,2.4C513.2,396.1,513.1,396.2,513.1,396.3z"/>
	<g id="XMLID_79_">
		<path id="XMLID_87_" class="st17" d="M848.3,504.5c0,0-14,10.8-19.7,25.7c-5.7,14.9-8.7,30.5-8,34.6c0.7,4.1,4.3,1.7,7.3-5.2
			s9.7-20.7,30-28C878.3,524.2,848.3,504.5,848.3,504.5z"/>
		<path id="XMLID_86_" class="st17" d="M907.3,486.9c0,0,13,5.1,19.7,18.9c6.7,13.9,6.3,19.8,4.7,23.7c-1.7,3.9-2.3,2.4-8.3-4
			c-6-6.5-11.7-10-29.7-2.4L907.3,486.9z"/>
		<path id="XMLID_85_" class="st19" d="M901.8,553.7c-3.2,14.4-23.8,54.7-23.8,54.7s-23-23.6-24.5-41.1c-1.5-17.5,5.2-24.7,5.2-24.7
			l4.9-1.5l28.5-8.7l6.5-2C898.6,530.5,905,539.4,901.8,553.7z"/>
		<path id="XMLID_84_" class="st7" d="M876.7,591.1c0,0-13.9-20.1-15.6-32.4c-1-7.2,0.9-13.5,2.6-17.5l4.5-1.4l16.7-5.1l7.3-2.2
			c1.6,1.9,3.6,6,4.2,14.9C897.3,563.3,876.7,591.1,876.7,591.1z"/>
		<path id="XMLID_83_" class="st20" d="M886.5,550.1c-1.2,12.4-9.9,25.4-9.9,25.4s-4.4-7.5-7.9-21.1c-1.6-6.3-1.4-11.2-0.6-14.7
			l16.7-5.1C886,538.1,887.2,543.3,886.5,550.1z"/>
		<path id="XMLID_82_" class="st21" d="M899,523.5l-43.5,12.3c0,0-25.9-40.8-15.5-97c1.5-8.1,3.1-15.6,4.9-22.4
			c10.3-40.7,24.3-59.8,32.4-62.4c8-2.6,24.4,13.9,33,42.7c1.5,5.1,2.8,10.6,3.8,16.4C920.3,451.9,909.3,509.7,899,523.5z"/>
		<path id="XMLID_81_" class="st17" d="M910.2,396.6l-65.4,19.7c10.3-40.7,24.3-59.8,32.4-62.4C885.2,351.3,901.6,367.8,910.2,396.6
			z"/>
		<path id="XMLID_80_" class="st22" d="M898.6,436c0,11-8.9,22.1-19.9,24.8c-11,2.7-19.9-3.9-19.9-14.9s8.9-22.1,19.9-24.8
			C889.6,418.4,898.6,425.1,898.6,436z"/>
	</g>
	<path id="XMLID_78_" class="st23" d="M483.2,649.6c0,0-0.4-6.9-7.1-6.5c-6.7,0.4-14,2.8-18.4,6.3c-4.4,3.5-4.4,4.9-3.1,6
		c1.3,1.1,3.4,1.4,4,0.1s2-0.1,2.8,0.8c0.8,0.9,2.1,1.4,3-0.4c0.9-1.8,2-2.1,3.8-0.4c1.8,1.6,2.3,1.7,3.4,0.3c1.1-1.4,2-1.7,3.2-1.2
		c1.2,0.5,2.5,0.1,2.4-1.8c-0.1-2,1.1-2.7,2.5-2.2C481,651,483.1,652.6,483.2,649.6z"/>
	<path id="XMLID_77_" class="st24" d="M476.8,653.6c0,0-5-5.2,0-9.2c5-4.1,12-7.2,17.8-7.6s6.8,0.6,6.8,2.2
		c-0.1,1.7-1.3,3.3-2.8,2.7c-1.4-0.6-1.4,1.2-1.3,2.4c0.1,1.2-0.4,2.4-2.4,1.7c-2-0.6-3-0.1-3,2.2c0,2.3-0.3,2.7-2.2,2.4
		s-2.7,0.1-3.2,1.2c-0.5,1.1-1.7,1.7-3.1,0.3c-1.4-1.4-2.8-1.2-3.4,0.1C479.4,653.1,479.1,655.6,476.8,653.6z"/>
	<path id="XMLID_76_" class="st16" d="M555.1,624.5c0,0,3.3-6.3,15.1-11.4c13.1-5.7,24.8-6.4,29.5-4.5c4.8,1.9,2.6,8.2-2,12.3
		c-4.6,4.1-16.5,10.7-28.9,11S552.8,629.8,555.1,624.5z"/>
	<polygon id="XMLID_75_" class="st25" points="692,594.8 665.8,581.2 646,585.3 678.5,612.2 	"/>
	<polygon id="XMLID_74_" class="st6" points="651.4,579.3 677.6,569.9 697.4,577.3 664.9,598.9 	"/>
	<path id="XMLID_73_" class="st17" d="M755.3,369.7c0.9-1,1.8-2.1,2.8-3c1.8-1.5,4-1.6,5.5-0.6c1.6,1.1,2.1,3.4,1.4,5.7
		c-0.9,3-2.7,5.4-4.6,7.7c-1.4,1.6-2.9,3.1-4.4,4.5c-0.3,0.3-0.9,0.5-1.3,0.4c-2.6-1-5.1-2.2-7.2-4.3c-2-2-2.7-4.3-1.8-6.9
		c1-2.8,2.7-4.8,5.9-5.2C753,368,753.6,368.3,755.3,369.7z"/>
	<path id="XMLID_31_" class="st24" d="M750.7,446.3c-0.9-1.2-1.5-2.2-2.4-3.1c-1.3-1.4-2.7-2.7-4.2-3.9c-1-0.8-1.1-1.7,0.1-2.1
		c1.1-0.3,2.4-0.5,3.5-0.2c1.9,0.5,2.9,0,4-1.5c3-4.2,6.2-8.3,9.5-12.3c0.6-0.7,1.4-1.3,2.2-1.8c0.2-0.2,0.6,0,1,0
		c0,0.3,0,0.7-0.1,1c-0.7,1-1.5,2-2.3,3c-4.5,5.9-7.9,12.4-10.5,19.4C751.3,445.3,751,445.7,750.7,446.3z"/>
	<g id="XMLID_26_">
		<path id="XMLID_28_" class="st4" d="M668.7,430.5c-0.2,4.9-2.7,10-6.7,14.3c-3.6,3.9-8,6.6-13.6,7.4c-8.3,1.1-14.7-4.8-14.2-13.3
			c0.4-7.6,4.1-13.3,9.7-17.8c3.1-2.6,6.8-4.3,11-4.7C663,415.6,668.8,421,668.7,430.5z M666.1,431.2c0-8.5-5.1-13-12.3-12
			c-3.3,0.5-6.2,1.8-8.7,3.9c-4.5,3.7-7.6,8.2-8.1,14.3c-0.7,8.2,5.2,13.4,13.1,11.8c3.6-0.7,6.6-2.5,9.2-4.9
			C663.3,440.5,665.9,435.9,666.1,431.2z"/>
		<path id="XMLID_27_" class="st4" d="M647.2,444.8c0-6.4,0-12.6,0-18.9c4.5,1.8,8.9,3.6,13.4,5.4
			C656.2,435.8,651.8,440.2,647.2,444.8z"/>
	</g>
	<g id="XMLID_25_">
		<g id="XMLID_67_">
			<path id="XMLID_100_" class="st26" d="M827.1,325.4l26.1,3.5V324l-20.7-2.5l20.7-14.6v-4.8l-26.1,18.7V325.4z M856.2,334.7
				l3.9-1.1l11.4-44.1l-3.9,1.1L856.2,334.7z M874.5,295.9v4.8l20.7,2.4l-20.7,14.7v4.8l26.1-18.8v-4.5L874.5,295.9z"/>
		</g>
	</g>
	<g id="XMLID_12_">
		<path id="XMLID_23_" class="st27" d="M638.1,520.6c0.1,0,0.2,0.1,0.2,0.2c0,0.1,0,0.2,0,0.3l-1.4,2.5c-0.1,0.1-0.1,0.2-0.2,0.2
			c-0.1,0-0.2,0-0.3,0c-0.3-0.1-0.6-0.2-0.9-0.2c-0.3,0-0.7,0-1,0.2c-0.5,0.1-0.9,0.4-1.3,0.7c-0.4,0.3-0.7,0.6-1,1
			s-0.5,0.8-0.6,1.3c-0.2,0.5-0.2,0.9-0.2,1.4s0.1,0.9,0.2,1.2c0.2,0.4,0.4,0.6,0.6,0.9s0.6,0.4,1,0.4s0.8,0,1.3-0.1
			c0.4-0.1,0.7-0.3,1-0.5s0.6-0.5,0.9-0.8c0.1-0.1,0.2-0.1,0.2-0.2c0.1,0,0.1,0,0.2,0.1l1.4,1.7c0.1,0.1,0.1,0.2,0,0.3
			c0,0.1-0.1,0.2-0.2,0.3c-0.5,0.5-1.1,1-1.7,1.4c-0.6,0.4-1.2,0.7-1.9,0.9c-0.6,0.2-1.2,0.3-1.7,0.3c-0.5,0-1,0-1.5-0.2
			c-0.5-0.1-0.9-0.3-1.3-0.6c-0.4-0.3-0.7-0.6-1-1c-0.3-0.4-0.5-0.8-0.6-1.4c-0.2-0.5-0.2-1.1-0.2-1.7c0-0.6,0.1-1.2,0.2-1.8
			c0.1-0.6,0.4-1.2,0.6-1.8c0.3-0.6,0.6-1.1,1-1.6c0.4-0.5,0.8-1,1.3-1.4s1-0.8,1.5-1.1c0.5-0.3,1.1-0.6,1.7-0.8
			c0.7-0.2,1.3-0.3,1.9-0.3C637,520.3,637.6,520.5,638.1,520.6z"/>
		<path id="XMLID_21_" class="st27" d="M640.4,519.4c0-0.1,0-0.2,0.1-0.3c0.1-0.1,0.1-0.2,0.3-0.2l2.5-0.8c0.1,0,0.2,0,0.3,0
			c0.1,0,0.1,0.1,0.1,0.2v4.1l4.1-1.3v-4.1c0-0.1,0-0.2,0.1-0.3c0.1-0.1,0.2-0.2,0.3-0.2l2.4-0.8c0.1,0,0.2,0,0.3,0
			c0.1,0,0.1,0.1,0.1,0.2v12c0,0.1,0,0.2-0.1,0.3c-0.1,0.1-0.2,0.1-0.3,0.2l-2.5,0.8c-0.1,0-0.2,0-0.3,0c-0.1,0-0.1-0.1-0.1-0.2
			v-4.9l-4.1,1.3v4.9c0,0.1,0,0.2-0.1,0.3c-0.1,0.1-0.2,0.2-0.3,0.2l-2.4,0.8c-0.2,0.1-0.4,0-0.4-0.2V519.4z"/>
		<path id="XMLID_19_" class="st27" d="M653.7,515.3c0-0.1,0-0.2,0.1-0.3c0.1-0.1,0.2-0.2,0.3-0.2l8.3-2.6c0.1,0,0.2,0,0.3,0
			c0.1,0.1,0.1,0.1,0.1,0.3v2.1c0,0.1,0,0.2-0.1,0.3c-0.1,0.1-0.2,0.2-0.3,0.2l-5.4,1.7v2.1l4.2-1.3c0.1,0,0.2,0,0.3,0
			c0.1,0,0.1,0.1,0.1,0.2v1.8c0,0.1,0,0.2-0.1,0.3s-0.2,0.2-0.3,0.2l-4.2,1.3v2.2l5.6-1.7c0.2-0.1,0.4,0,0.4,0.3v2.1
			c0,0.1,0,0.1-0.1,0.2c0,0.2-0.1,0.3-0.3,0.3l-8.4,2.6c-0.1,0-0.2,0-0.3,0c-0.1,0-0.1-0.1-0.1-0.2V515.3z"/>
		<path id="XMLID_17_" class="st27" d="M665,511.8c0-0.1,0-0.2,0.1-0.3s0.2-0.2,0.3-0.2l8.3-2.6c0.1,0,0.2,0,0.3,0
			c0.1,0.1,0.1,0.1,0.1,0.3v2.1c0,0.1,0,0.2-0.1,0.3c-0.1,0.1-0.2,0.2-0.3,0.2l-5.4,1.7v2.1l4.2-1.3c0.1,0,0.2,0,0.3,0
			c0.1,0,0.1,0.1,0.1,0.2v1.8c0,0.1,0,0.2-0.1,0.3c-0.1,0.1-0.2,0.2-0.3,0.2l-4.2,1.3v2.2l5.6-1.7c0.2-0.1,0.4,0,0.4,0.3v2.1
			c0,0.1,0,0.1-0.1,0.2c0,0.2-0.1,0.3-0.3,0.3l-8.4,2.6c-0.1,0-0.2,0-0.3,0c-0.1,0-0.1-0.1-0.1-0.2V511.8z"/>
		<path id="XMLID_15_" class="st27" d="M677.8,516c0.1,0,0.2,0.1,0.4,0.2c0.1,0.1,0.3,0.2,0.5,0.2c0.3,0.1,0.6,0.2,0.8,0.2
			c0.3,0,0.6,0,0.9-0.1c0.3-0.1,0.5-0.2,0.7-0.3c0.2-0.1,0.3-0.3,0.5-0.4c0.1-0.1,0.2-0.3,0.2-0.4c0-0.2,0.1-0.3,0.1-0.5
			c0-0.2-0.1-0.3-0.2-0.4c-0.1-0.1-0.3-0.2-0.5-0.2c-0.2,0-0.4-0.1-0.6-0.1c-0.2,0-0.4,0-0.5,0c-0.7,0-1.2-0.1-1.7-0.2
			c-0.5-0.1-0.9-0.3-1.2-0.5c-0.3-0.2-0.6-0.5-0.7-0.9c-0.2-0.4-0.2-0.8-0.2-1.3c0-0.5,0.1-1,0.3-1.5c0.2-0.5,0.5-1,0.9-1.4
			c0.4-0.4,0.8-0.8,1.4-1.1c0.5-0.3,1.2-0.6,1.8-0.8c0.5-0.2,1-0.2,1.5-0.3c0.5,0,0.9,0,1.4,0.1c0.2,0.1,0.4,0.1,0.5,0.2
			c0.2,0.1,0.3,0.1,0.4,0.2c0.1,0.1,0.2,0.2,0.3,0.2c0.1,0.1,0.1,0.2,0.1,0.2c0,0.1,0,0.1-0.1,0.2c0,0.1-0.1,0.2-0.2,0.3l-1.3,1.8
			c-0.1,0.1-0.2,0.2-0.3,0.2c-0.1,0-0.1,0-0.2,0c-0.1,0-0.1-0.1-0.2-0.1l-0.1,0c-0.1-0.1-0.2-0.1-0.4-0.2c-0.1-0.1-0.3-0.1-0.4-0.1
			c-0.2,0-0.3-0.1-0.5-0.1c-0.2,0-0.3,0-0.5,0.1c-0.2,0.1-0.4,0.1-0.5,0.2c-0.2,0.1-0.3,0.2-0.4,0.3c-0.1,0.1-0.2,0.2-0.3,0.4
			c-0.1,0.1-0.1,0.3-0.1,0.4c0,0.2,0,0.3,0.1,0.4c0.1,0.1,0.2,0.2,0.4,0.2c0.2,0.1,0.3,0.1,0.6,0.1c0.2,0,0.5,0,0.8,0
			c0.6,0,1.1,0.1,1.6,0.1c0.5,0.1,0.9,0.2,1.3,0.4c0.4,0.2,0.6,0.5,0.8,0.8c0.2,0.4,0.3,0.8,0.3,1.4c0,0.6-0.1,1.2-0.4,1.8
			c-0.2,0.6-0.6,1.1-1,1.6c-0.4,0.5-0.9,0.9-1.5,1.3c-0.6,0.4-1.2,0.7-1.9,0.9c-0.6,0.2-1.3,0.3-1.9,0.2c-0.6,0-1.2-0.2-1.7-0.4
			c-0.2-0.1-0.4-0.2-0.6-0.3c-0.2-0.1-0.3-0.2-0.4-0.3l0,0c0,0,0,0,0,0c0,0,0,0,0,0c0,0,0,0,0,0c0,0,0,0,0,0
			c-0.1-0.1-0.2-0.2-0.2-0.3c0-0.1,0.1-0.2,0.2-0.4l1.4-1.9c0.1-0.1,0.2-0.2,0.3-0.2c0.1,0,0.1,0,0.2,0
			C677.6,515.9,677.7,515.9,677.8,516z"/>
		<path id="XMLID_13_" class="st27" d="M687.1,504.9c0-0.1,0-0.2,0.1-0.3c0.1-0.1,0.2-0.2,0.3-0.2l8.3-2.6c0.1,0,0.2,0,0.3,0
			s0.1,0.1,0.1,0.3v2.1c0,0.1,0,0.2-0.1,0.3c-0.1,0.1-0.2,0.2-0.3,0.2l-5.4,1.7v2.1l4.2-1.3c0.1,0,0.2,0,0.3,0
			c0.1,0,0.1,0.1,0.1,0.2v1.8c0,0.1,0,0.2-0.1,0.3c-0.1,0.1-0.2,0.2-0.3,0.2l-4.2,1.3v2.2l5.6-1.7c0.2-0.1,0.4,0,0.4,0.3v2.1
			c0,0.1,0,0.1-0.1,0.2c0,0.2-0.1,0.3-0.3,0.3l-8.4,2.6c-0.1,0-0.2,0-0.3,0c-0.1,0-0.1-0.1-0.1-0.2V504.9z"/>
	</g>
	<g id="XMLID_439_">
		<path id="XMLID_11_" class="st10" d="M772.5,624.9c0,0,1.1,5.9,4,6s2.6-8.4,2.6-8.4L772.5,624.9z"/>
		<g id="XMLID_2_">
			<ellipse id="XMLID_10_" class="st28" cx="748.3" cy="744.9" rx="72" ry="10.5"/>
			<path id="XMLID_9_" class="st10" d="M741.8,524.9c0,0-7.1,8.5-9.4,13.1c-2.2,4.6-2.6,7.9,0.6,9.6s6.1,1.6,6,3.4s-0.6,2.9-0.6,2.9
				s2,1.8,5.5,1.6s3.9-1.3,3.9-1.3s-1.2-5.1,1-7s6.9-8.8,6.9-11.2c0-2.4-2.8-11.1-6.3-11.1C746,525,741.8,524.9,741.8,524.9z"/>
			<path id="XMLID_8_" class="st10" d="M679.6,530c0,0,4.9-2.3,3.8-4.4s-6.4-9.1-8.6-9s-1.7,5.5,0,8.3S679.6,530,679.6,530z"/>
			<path id="XMLID_7_" class="st16" d="M738.5,519.5c0,0-0.8,5.5,4.3,7c5.1,1.5,8.1,6.2,5.2,9.5c-2.8,3.2-3.7,4.2-3.7,4.2
				s2.8-2.9,5.4-2.4c2.6,0.6,0.5,5.1-2.2,6.9s-2.2,6.7-0.5,7.7s0.9-1.7,3.8-1.3c3,0.4,7.7,1.7,7.5-2.1c-0.2-3.8,4-2.7,7.5-6.8
				c3.5-4.2,5.4-8.9,0.7-10.8c-4.8-1.9,3.5-6.5-0.6-9.4c-4.1-2.9-9.9-0.1-12.1-5.2s-0.9-7.8-5.6-8.1
				C743.8,508.3,738.3,513.1,738.5,519.5z"/>
			<g id="XMLID_4_">
				<path id="XMLID_6_" class="st16" d="M718.8,734.6c0,0,0,3.4-2.8,3.7s-11,4.2-8.5,6.8s19.8,0.2,20.6-0.3c0.8-0.5,0.4-4.5,0-5.7
					c-0.4-1.2-1.5-4.1-1.5-4.1L718.8,734.6z"/>
				<path id="XMLID_5_" class="st16" d="M775.8,735.1c0,0,2.3,2.2-1.7,4.2s-6.8,5.2-1.5,5.6c5.3,0.3,15.6-1.2,15.8-3.4
					s-5.1-10.3-5.1-10.3L775.8,735.1z"/>
			</g>
			<path id="XMLID_3_" class="st29" d="M723.3,617.4l-9.2,57.9l1.8,59.4c0,0,0.4,2.1,5.5,2.2s6.6-1,6.6-1l2-57.8l10.5-40.2l7.8,37.4
				l26.5,61.6c0,0,3.2,0.9,6.5-0.9s3.9-5,3.9-5l-20.6-57.9l-6.8-55.8H723.3z"/>
			<path id="XMLID_98_" class="st30" d="M679.6,530.7c0,0,1.7,0.3,3.9-1.3c2.2-1.6,1.5-2.7,1.5-2.7l19.9,24c0,0,24.8,5.3,28.4,4.9
				c3.6-0.4,6-2.3,6-2.3s4.5,1.8,6.5,1c2-0.8,2-0.8,2-0.8s4.7,1.1,6.3,4.7s15.9,27.7,17.4,35.5s7.6,28.9,7.6,28.9s-1.1,2.4-3.3,2.8
				s-3.3-0.4-3.3-0.4l-9.4-31.3l-7.7-10.5l3.3,36c0,0-8.6,7.5-23.1,4s-14.2-4.5-14.2-4.5s0.1-34.4,1.2-39s3.5-12.6,3.5-12.6
				s-25.1-4.3-29-9.4S679.6,530.7,679.6,530.7z"/>
		</g>
	</g>
</g>
</svg>
