<svg version="1.1" xmlns="http://www.w3.org/2000/svg" xmlns:xlink="http://www.w3.org/1999/xlink" x="0px" y="0px" viewBox="0 0 1190 841" style="enable-background:new 0 0 1190.6 841.9;" xml:space="preserve" id="el_uOotHMbUm"><style>@-webkit-keyframes kf_el_ESGQ2qINhk_an_yWKpJzPhB{0%{-webkit-transform: translate(437.79998779296875px, 267.4090270996094px) rotate(-3deg) translate(-437.79998779296875px, -267.4090270996094px);transform: translate(437.79998779296875px, 267.4090270996094px) rotate(-3deg) translate(-437.79998779296875px, -267.4090270996094px);}50%{-webkit-transform: translate(437.79998779296875px, 267.4090270996094px) rotate(5deg) translate(-437.79998779296875px, -267.4090270996094px);transform: translate(437.79998779296875px, 267.4090270996094px) rotate(5deg) translate(-437.79998779296875px, -267.4090270996094px);}100%{-webkit-transform: translate(437.79998779296875px, 267.4090270996094px) rotate(-3deg) translate(-437.79998779296875px, -267.4090270996094px);transform: translate(437.79998779296875px, 267.4090270996094px) rotate(-3deg) translate(-437.79998779296875px, -267.4090270996094px);}}@keyframes kf_el_ESGQ2qINhk_an_yWKpJzPhB{0%{-webkit-transform: translate(437.79998779296875px, 267.4090270996094px) rotate(-3deg) translate(-437.79998779296875px, -267.4090270996094px);transform: translate(437.79998779296875px, 267.4090270996094px) rotate(-3deg) translate(-437.79998779296875px, -267.4090270996094px);}50%{-webkit-transform: translate(437.79998779296875px, 267.4090270996094px) rotate(5deg) translate(-437.79998779296875px, -267.4090270996094px);transform: translate(437.79998779296875px, 267.4090270996094px) rotate(5deg) translate(-437.79998779296875px, -267.4090270996094px);}100%{-webkit-transform: translate(437.79998779296875px, 267.4090270996094px) rotate(-3deg) translate(-437.79998779296875px, -267.4090270996094px);transform: translate(437.79998779296875px, 267.4090270996094px) rotate(-3deg) translate(-437.79998779296875px, -267.4090270996094px);}}@-webkit-keyframes kf_el_ESGQ2qINhk_an_3TEZWfl_M{0%{-webkit-transform: translate(437.79998779296875px, 267.4090270996094px) translate(-437.79998779296875px, -267.4090270996094px) translate(0px, 0px);transform: translate(437.79998779296875px, 267.4090270996094px) translate(-437.79998779296875px, -267.4090270996094px) translate(0px, 0px);}50%{-webkit-transform: translate(437.79998779296875px, 267.4090270996094px) translate(-437.79998779296875px, -267.4090270996094px) translate(0px, 20px);transform: translate(437.79998779296875px, 267.4090270996094px) translate(-437.79998779296875px, -267.4090270996094px) translate(0px, 20px);}100%{-webkit-transform: translate(437.79998779296875px, 267.4090270996094px) translate(-437.79998779296875px, -267.4090270996094px) translate(0px, 0px);transform: translate(437.79998779296875px, 267.4090270996094px) translate(-437.79998779296875px, -267.4090270996094px) translate(0px, 0px);}}@keyframes kf_el_ESGQ2qINhk_an_3TEZWfl_M{0%{-webkit-transform: translate(437.79998779296875px, 267.4090270996094px) translate(-437.79998779296875px, -267.4090270996094px) translate(0px, 0px);transform: translate(437.79998779296875px, 267.4090270996094px) translate(-437.79998779296875px, -267.4090270996094px) translate(0px, 0px);}50%{-webkit-transform: translate(437.79998779296875px, 267.4090270996094px) translate(-437.79998779296875px, -267.4090270996094px) translate(0px, 20px);transform: translate(437.79998779296875px, 267.4090270996094px) translate(-437.79998779296875px, -267.4090270996094px) translate(0px, 20px);}100%{-webkit-transform: translate(437.79998779296875px, 267.4090270996094px) translate(-437.79998779296875px, -267.4090270996094px) translate(0px, 0px);transform: translate(437.79998779296875px, 267.4090270996094px) translate(-437.79998779296875px, -267.4090270996094px) translate(0px, 0px);}}#el_uOotHMbUm *{-webkit-animation-duration: 3s;animation-duration: 3s;-webkit-animation-iteration-count: infinite;animation-iteration-count: infinite;-webkit-animation-timing-function: cubic-bezier(0, 0, 1, 1);animation-timing-function: cubic-bezier(0, 0, 1, 1);}#el_FVrUZZdSu7{overflow: visible;fill: #353535;}#el_ig7Rz-H14e{-webkit-clip-path: url(#XMLID_3_);clip-path: url(#XMLID_3_);fill: #161616;}#el_1Tzu5KGIF-{overflow: visible;fill: #FFFFFF;}#el_MIqCm2Cv45{overflow: visible;fill: none;stroke: #FCFCFC;stroke-miterlimit: 10;}#el_DBAFFHNfVT{fill: #353535;}#el_diGWpz4Vvp{fill: #A8CDE1;-webkit-transform: matrix(0.9075, -0.4201, 0.4201, 0.9075, -73.9785, 244.0726);transform: matrix(0.9075, -0.4201, 0.4201, 0.9075, -73.9785, 244.0726);}#el_gasA_oc1dF{fill: #161616;}#el_R-YXK93DSM{overflow: visible;fill: #454545;}#el_5aYDi6e6pF{-webkit-clip-path: url(#XMLID_5_);clip-path: url(#XMLID_5_);fill: #161616;}#el_xU0aQXFLV0d{overflow: visible;fill: #454545;}#el_pcNmOGNb-Qh{-webkit-clip-path: url(#XMLID_6_);clip-path: url(#XMLID_6_);fill: #161616;}#el_f-VkPYnmMWU{fill: #689746;}#el_c1tFTOexPoo{fill: #689746;}#el_LXwC6rvGAAA{fill: #689746;}#el_wP5wKRutrDo{fill: #A9B3B7;}#el_ESGQ2qINhk_an_3TEZWfl_M{-webkit-animation-fill-mode: backwards;animation-fill-mode: backwards;-webkit-transform: translate(437.79998779296875px, 267.4090270996094px) translate(-437.79998779296875px, -267.4090270996094px) translate(0px, 0px);transform: translate(437.79998779296875px, 267.4090270996094px) translate(-437.79998779296875px, -267.4090270996094px) translate(0px, 0px);-webkit-animation-name: kf_el_ESGQ2qINhk_an_3TEZWfl_M;animation-name: kf_el_ESGQ2qINhk_an_3TEZWfl_M;-webkit-animation-timing-function: cubic-bezier(0, 0, 1, 1);animation-timing-function: cubic-bezier(0, 0, 1, 1);}#el_ESGQ2qINhk_an_yWKpJzPhB{-webkit-animation-fill-mode: backwards;animation-fill-mode: backwards;-webkit-transform: translate(437.79998779296875px, 267.4090270996094px) rotate(-3deg) translate(-437.79998779296875px, -267.4090270996094px);transform: translate(437.79998779296875px, 267.4090270996094px) rotate(-3deg) translate(-437.79998779296875px, -267.4090270996094px);-webkit-animation-name: kf_el_ESGQ2qINhk_an_yWKpJzPhB;animation-name: kf_el_ESGQ2qINhk_an_yWKpJzPhB;-webkit-animation-timing-function: cubic-bezier(0, 0, 1, 1);animation-timing-function: cubic-bezier(0, 0, 1, 1);}</style>

<g id="el_2jhRdN80_o">
	<g id="el_ESGQ2qINhk_an_3TEZWfl_M" data-animator-group="true" data-animator-type="0"><g id="el_ESGQ2qINhk_an_yWKpJzPhB" data-animator-group="true" data-animator-type="1"><g id="el_ESGQ2qINhk">
		<g id="el_tygvvcivYw">
			<defs>
				<path id="XMLID_502_" d="M468.5,297.8c-14.8,5.5-12.6,20.2-5.5,30.7c5,7.4,136.5,195.5,148.6,205.4c8.8,7.1,20.8,7.9,40.8-3.1&#10;&#9;&#9;&#9;&#9;&#9;s67.6-36.3,83.6-48c7.1-5.2,7-16,1.4-23.2c-32.1-40.8-125-155.1-153.9-187.7c-5.5-6.2-12.3-4.9-19.7-2.5&#10;&#9;&#9;&#9;&#9;&#9;C558.1,271.5,479.2,293.8,468.5,297.8z"/>
			</defs>
			<use xlink:href="#XMLID_502_" id="el_FVrUZZdSu7"/>
			<clipPath id="XMLID_3_">
				<use xlink:href="#XMLID_502_" style="overflow:visible;"/>
			</clipPath>
			<path id="el_ig7Rz-H14e" d="M477.7,291.9c0,0-27,6.5-8.5,33c18.4,26.4,131.6,186.9,140.8,197.3&#10;&#9;&#9;&#9;&#9;c9.2,10.5,23.4,9.2,42.4-0.6c19.1-9.8,66.8-39,76.2-44.9c14.8-9.2,6.8-20.9-1.8-35c15.4,14.1,24.6,32,24.6,32l-17.2,35.7&#10;&#9;&#9;&#9;&#9;L604.4,548L437.8,308.9L477.7,291.9z"/>
		</g>
		<g id="el_cPzLd81Ion">
			<defs>
				<path id="XMLID_501_" d="M481.4,299.6c-8.4,3.9-12.4,11.8-5.7,21.8c4.7,7.1,127.6,178.8,136.8,190.5c10.3,13.1,22.1,11.3,43,0.2&#10;&#9;&#9;&#9;&#9;&#9;c19.2-10.1,63.3-35.7,68.2-39.8c6.4-5.3,7.3-12.9,1.9-19.7c-33.1-41.6-113.8-140.2-143.2-174.2c-5.2-6-11.7-4.7-18.7-2.3&#10;&#9;&#9;&#9;&#9;&#9;C558.3,278.1,491.2,295.1,481.4,299.6z"/>
			</defs>
			<use xlink:href="#XMLID_501_" id="el_1Tzu5KGIF-"/>
			<clipPath id="XMLID_4_">
				<use xlink:href="#XMLID_501_" style="overflow:visible;"/>
			</clipPath>
			<use xlink:href="#XMLID_501_" id="el_MIqCm2Cv45"/>
		</g>
		<path id="el_DBAFFHNfVT" d="M499.3,291.7c0,0,7.4,9.2,14.1,6.8c6.8-2.5,27.1-7.4,34.4-9.8c7.4-2.5,7.4-12.9,7.4-12.9&#10;&#9;&#9;&#9;L499.3,291.7z"/>
		
			<ellipse id="el_diGWpz4Vvp" cx="517.2" cy="290" rx="2.9" ry="3"/>
		<path id="el_gasA_oc1dF" d="M545.3,283l-19.2,5.5c-0.7,0.2-1.5-0.2-1.7-0.9l0,0c-0.2-0.7,0.2-1.5,0.9-1.7l19.2-5.5&#10;&#9;&#9;&#9;c0.7-0.2,1.5,0.2,1.7,0.9l0,0C546.5,282,546.1,282.8,545.3,283z"/>
		<g id="el_YCX7D7odTl">
			<defs>
				<path id="XMLID_292_" d="M471.2,333.4c1.3,0.2,11.5,15.7,12.2,16.9c1.1,1.9-3.1,5.4-5.1,2.5c-1.3-1.8-10.6-14.6-11-16.1&#10;&#9;&#9;&#9;&#9;&#9;C466.6,334,469.4,333.2,471.2,333.4z"/>
			</defs>
			<use xlink:href="#XMLID_292_" id="el_R-YXK93DSM"/>
			<clipPath id="XMLID_5_">
				<use xlink:href="#XMLID_292_" style="overflow:visible;"/>
			</clipPath>
			<path id="el_5aYDi6e6pF" d="M465.5,335.6l0.8,3.6l13.1,16.2c0,0,3.4-1.6,0.9-5.2s-9.5-15.4-11.5-15.7&#10;&#9;&#9;&#9;&#9;C466.9,334.2,465.5,335.6,465.5,335.6z"/>
		</g>
		<g id="el_2QHS8lI80A">
			<defs>
				<path id="XMLID_503_" d="M486.2,354.9c1.3,0.2,11.5,15.7,12.2,16.9c1.1,1.9-3.1,5.4-5.1,2.5c-1.3-1.8-10.6-14.6-11-16.1&#10;&#9;&#9;&#9;&#9;&#9;C481.6,355.5,484.4,354.7,486.2,354.9z"/>
			</defs>
			<use xlink:href="#XMLID_503_" id="el_xU0aQXFLV0d"/>
			<clipPath id="XMLID_6_">
				<use xlink:href="#XMLID_503_" style="overflow:visible;"/>
			</clipPath>
			<path id="el_pcNmOGNb-Qh" d="M480.5,357.1l0.8,3.6l13.1,16.2c0,0,3.4-1.6,0.9-5.2s-9.5-15.4-11.5-15.7&#10;&#9;&#9;&#9;&#9;C481.9,355.7,480.5,357.1,480.5,357.1z"/>
		</g>
		<g id="el_wplPanbh773">
			<path id="el_f-VkPYnmMWU" d="M640.4,377.1c-1.8,0.4-3.7,0.8-5.6,1.1c-3.2-8.1-8.4-14.9-15.2-20.2&#10;&#9;&#9;&#9;&#9;c-6.9-5.4-14.6-8.7-23.2-10.1c0.1-1.8,0.1-3.5,0.2-5.3c0.6,0.1,1.2,0.2,1.8,0.3c2.2,0.6,4.5,1.1,6.6,1.7c3.3,1,6.5,2.4,9.6,4.1&#10;&#9;&#9;&#9;&#9;c2.5,1.4,5,2.9,7.3,4.6c2.5,1.8,4.8,3.8,6.9,6c1.8,1.9,3.5,3.8,5,5.9c2.1,2.9,3.9,5.9,5.4,9.1&#10;&#9;&#9;&#9;&#9;C639.7,375.3,640.1,376.2,640.4,377.1C640.4,377.1,640.4,377.1,640.4,377.1z"/>
			<path id="el_c1tFTOexPoo" d="M623.5,426.8c-3.6,0-6.7-0.4-9.6-1.2c-3.9-1-7.6-2.3-11.3-4c-2.2-1-4.4-1.9-6.5-3.1&#10;&#9;&#9;&#9;&#9;c-2.7-1.4-5.3-3-7.9-4.6c-1.6-1-3.1-2-4.6-3.1c-2.2-1.7-4.4-3.4-6.5-5.2c-1.3-1.1-2.6-2.2-3.8-3.4c-1.3-1.3-2.6-2.6-3.9-3.9&#10;&#9;&#9;&#9;&#9;c-1.1-1.1-2.2-2.3-3.2-3.5c-1.5-1.8-2.9-3.6-4.4-5.4c-0.6-0.8-1.2-1.6-1.8-2.4c-1-1.6-2-3.2-3-4.8c-0.6-0.9-1.1-1.9-1.6-2.9&#10;&#9;&#9;&#9;&#9;c-0.8-1.7-1.6-3.4-2.4-5.1c-0.4-0.9-0.8-1.8-1.1-2.7c-0.9-2.6-1.5-5.3-1.4-8.1c0.1-2.3,0.6-4.4,2.1-6.2c0.6-0.7,1.3-1.3,2-1.9&#10;&#9;&#9;&#9;&#9;c2-1.6,4-3.2,6.1-4.8c1.1-0.8,2.1-1.7,3.4-2.1c2-0.7,4-0.5,5.9,0.5c1.3,0.7,2.4,1.7,3.5,2.6c1.3,1.1,2.7,2.2,4,3.3&#10;&#9;&#9;&#9;&#9;c2,1.7,4,3.3,6,5c1,0.9,1.8,2,2.1,3.4c0.2,0.9,0,1.8-0.3,2.6c-0.5,1.1-1.3,1.9-2.1,2.7c-1.6,1.5-3.2,3.1-4.8,4.6&#10;&#9;&#9;&#9;&#9;c-0.4,0.4-0.8,0.7-1.2,1.1c-0.5,0.5-0.6,0.9-0.2,1.6c0.9,1.6,1.9,3.2,3,4.6c1.4,1.8,2.9,3.6,4.6,5.2c1.8,1.8,3.7,3.5,5.6,5.2&#10;&#9;&#9;&#9;&#9;c1.6,1.4,3.2,2.7,4.9,3.8c2,1.4,4,2.7,6.1,3.9c1.7,1,3.5,1.9,5.4,2.6c0.7,0.3,1.3,0.5,2,0.8c0.5,0.2,0.9,0,1.2-0.4&#10;&#9;&#9;&#9;&#9;c0.7-0.8,1.3-1.7,1.9-2.5c1.1-1.4,2.1-2.8,3.2-4.1c0.6-0.8,1.2-1.5,2-2.1c1.6-1.3,3.5-1.4,5.4-0.7c1.4,0.5,2.5,1.6,3.7,2.5&#10;&#9;&#9;&#9;&#9;c1.2,1,2.4,1.9,3.6,2.9c1.4,1.1,2.7,2.3,4.1,3.4c1.1,0.9,2.3,1.8,3.4,2.8c1.5,1.3,2.6,2.9,2.9,4.9c0.2,1.5-0.1,2.9-0.8,4.2&#10;&#9;&#9;&#9;&#9;c-0.8,1.4-1.7,2.7-2.5,4.1c-0.8,1.3-1.6,2.6-2.3,3.9c-1.4,2.5-3.4,4.3-6.2,5.1C626.5,426.7,624.8,426.8,623.5,426.8z"/>
			<path id="el_LXwC6rvGAAA" d="M625,378.6c-2,0.4-4,0.8-6,1.2c-4-9.8-11.3-15.4-21.6-17.2c0.1-1.9,0.1-3.8,0.2-5.8&#10;&#9;&#9;&#9;&#9;c5.7,0.8,10.9,2.9,15.6,6.3C618.6,367,622.6,372.2,625,378.6z"/>
		</g>
	</g></g></g>
	<ellipse id="el_wP5wKRutrDo" cx="625" cy="567.5" rx="105.5" ry="9.8"/>
</g>
</svg>