<svg id="about-ombre_plaque" data-name="ombre plaque" xmlns="http://www.w3.org/2000/svg" viewBox="0 0 500 500"><title>processus</title><polygon points="250.61 458.58 72.82 355.94 72.76 359.41 250.55 462.05 427.18 359.41 427.24 355.94 250.61 458.58" fill="#202b54"></polygon><polygon points="314.37 314.67 270.16 288.98 258.88 257.07 303.09 282.76 314.37 314.67" fill="#ab4749"></polygon><polygon points="253.74 267.27 209.53 241.58 246.68 220.13 290.89 245.82 253.74 267.27" fill="#d95c5d"></polygon><polygon points="290.89 245.82 246.68 220.13 228.25 160.4 272.46 186.09 290.89 245.82" fill="#ab4749"></polygon><polygon points="247.88 131.96 203.67 106.26 252.44 78.11 296.65 103.8 247.88 131.96" fill="#4f66bf"></polygon><polygon points="182.41 390.85 138.2 365.16 203.67 106.26 247.88 131.96 182.41 390.85" fill="#232d54"></polygon><line x1="175.94" y1="368.58" x2="181.35" y2="375.99" fill="none" stroke="#a1a1a1" stroke-linecap="round" stroke-linejoin="round" stroke-width="2.65"></line><line x1="207.23" y1="110.98" x2="193.01" y2="118.58" fill="none" stroke="#dbdbdb" stroke-linecap="round" stroke-linejoin="round" stroke-width="2.65"></line><line x1="241.87" y1="133.03" x2="227.65" y2="140.63" fill="none" stroke="#dbdbdb" stroke-linecap="round" stroke-linejoin="round" stroke-width="2.65"></line><path d="M296.65,103.8L362,287.17l-47.63,27.5-11.27-31.9-61.53,35.53-11.74,45.19-47.4,27.37L247.88,132ZM253.74,267.27l37.14-21.45-18.43-59.74-0.46.26-18.26,80.92" fill="#374785"></path><polygon points="269.77 146.47 259.57 156.74 259.57 160.94 269.8 159.41 269.79 155.81 264.06 156.93 264.06 156.89 269.78 151.4 269.77 147.8 269.77 146.47" fill="#273155"></polygon><polygon points="284.98 139.01 284.99 142.62 290.72 141.5 290.72 141.54 285 147.03 285.01 151.29 295.22 141.03 295.21 137.49 284.98 139.01" fill="#273155"></polygon><polygon points="284.28 133.79 280.4 136.03 269.28 165.35 273.16 163.11 284.28 133.79" fill="#273155"></polygon><polygon points="252.38 93.68 252.38 93.98 249.56 95.61 249.56 95.31 252.38 93.68" fill="#f3f3f3"></polygon><line x1="260.02" y1="160.4" x2="264.07" y2="162.73" fill="none" stroke="#0f1324" stroke-linecap="round" stroke-linejoin="round" stroke-width="0.66"></line><line x1="260.02" y1="156.98" x2="264.07" y2="159.32" fill="none" stroke="#0f1324" stroke-linecap="round" stroke-linejoin="round" stroke-width="0.66"></line><line x1="268.99" y1="149.57" x2="273.04" y2="151.91" fill="none" stroke="#0f1324" stroke-linecap="round" stroke-linejoin="round" stroke-width="0.66"></line><line x1="282.26" y1="136.32" x2="286.3" y2="138.66" fill="none" stroke="#0f1324" stroke-linecap="round" stroke-linejoin="round" stroke-width="0.66"></line><line x1="294.63" y1="138.26" x2="298.67" y2="140.6" fill="none" stroke="#0f1324" stroke-linecap="round" stroke-linejoin="round" stroke-width="0.66"></line><line x1="294.63" y1="140.6" x2="298.67" y2="142.93" fill="none" stroke="#0f1324" stroke-linecap="round" stroke-linejoin="round" stroke-width="0.66"></line><line x1="286.05" y1="148.25" x2="290.1" y2="150.59" fill="none" stroke="#0f1324" stroke-linecap="round" stroke-linejoin="round" stroke-width="0.66"></line><line x1="286.05" y1="140.96" x2="290.1" y2="143.3" fill="none" stroke="#0f1324" stroke-linecap="round" stroke-linejoin="round" stroke-width="0.66"></line><line x1="272.1" y1="162.73" x2="276.15" y2="165.07" fill="none" stroke="#0f1324" stroke-linecap="round" stroke-linejoin="round" stroke-width="0.66"></line><line x1="269.48" y1="157.61" x2="273.53" y2="159.95" fill="none" stroke="#0f1324" stroke-linecap="round" stroke-linejoin="round" stroke-width="0.66"></line><polyline points="274.09 148.99 263.89 159.25 263.9 163.46 274.13 161.93 274.12 158.33 268.39 159.44 268.39 159.4 274.1 153.91 274.09 150.31" fill="#9eb2ff"></polyline><polyline points="289.31 141.53 289.32 145.13 295.04 144.01 295.04 144.06 289.33 149.54 289.34 153.81 299.54 143.54 299.53 140 289.31 141.53" fill="#9eb2ff"></polyline><polyline points="288.61 136.3 284.73 138.54 273.61 167.87 277.48 165.63 288.61 136.3" fill="#9eb2ff"></polyline><polygon points="229.82 363.48 314.37 314.67 281.11 295.56 241.56 318.29 229.82 363.48" fill="#1c2751"></polygon><polygon points="170.58 397.85 126.24 372.16 192.25 111.14 236.46 136.83 170.58 397.85" fill="#ad4042"></polygon><polygon points="192.25 111.14 194.37 110.22 238.58 135.92 236.46 136.83 192.25 111.14" fill="#ff787b"></polygon><polygon points="236.46 136.83 170.58 397.85 172.69 396.69 238.58 135.92 236.46 136.83" fill="#e05d60"></polygon><line x1="194.73" y1="117.76" x2="137.27" y2="346.52" fill="none" stroke="#853839" stroke-linecap="round" stroke-linejoin="round" stroke-width="1.99"></line><line x1="232.4" y1="138.26" x2="174.94" y2="367.03" fill="none" stroke="#853839" stroke-linecap="round" stroke-linejoin="round" stroke-width="1.99"></line><polyline points="136.95 346.37 134.39 342.84 189.76 120.38 194.41 117.6" fill="none" stroke="#dbdbdb" stroke-linecap="round" stroke-linejoin="round" stroke-width="2.65"></polyline><polyline points="174.53 367.03 171.97 363.51 227.34 141.04 232 138.26" fill="none" stroke="#dbdbdb" stroke-linecap="round" stroke-linejoin="round" stroke-width="2.65"></polyline><polyline points="138.9 379.5 146.87 348.44 160.84 340.54 217.21 125.64 219.57 124.49" fill="none" stroke="#7d3536" stroke-linecap="round" stroke-linejoin="round" stroke-width="0.66"></polyline><ellipse cx="157.37" cy="337.77" rx="1.44" ry="1.22" transform="translate(-210.03 399.97) rotate(-74.63)" fill="none" stroke="#7d3536" stroke-miterlimit="10" stroke-width="0.66"></ellipse><ellipse cx="219.57" cy="135.21" rx="1.44" ry="1.22" transform="translate(31 311.08) rotate(-74.63)" fill="none" stroke="#7d3536" stroke-miterlimit="10" stroke-width="0.66"></ellipse><polygon points="182.41 390.85 172.69 396.69 175.22 386.67 182.41 390.85" fill="#1e2645"></polygon><line x1="206.99" y1="136.34" x2="213.46" y2="140.19" fill="none" stroke="#7d3536" stroke-linecap="round" stroke-linejoin="round" stroke-width="0.66"></line><path d="M292.85,53.3A2.63,2.63,0,0,1,294,55.24V57L266.63,41.24V39.45a0.68,0.68,0,0,1,1.07-.67Z" fill="#e3e3e3"></path><path d="M294,57l-0.17,29a1,1,0,0,1-1.58.91L268,73a3.49,3.49,0,0,1-1.5-2.69l0.17-29Z" fill="#44494b"></path><path d="M279.24,51.28l-10.67-6.16a0.36,0.36,0,0,0-.59.33,1.28,1.28,0,0,0,.58,1l10.67,6.16a0.36,0.36,0,0,0,.59-0.33A1.28,1.28,0,0,0,279.24,51.28Z" fill="#7efcbd"></path><path d="M282.74,53.3l-1.5-.87a0.36,0.36,0,0,0-.59.33,1.28,1.28,0,0,0,.58,1l1.5,0.87a0.36,0.36,0,0,0,.59-0.33A1.28,1.28,0,0,0,282.74,53.3Z" fill="#ed5555"></path><path d="M291.41,58.31l-6.5-3.75a0.36,0.36,0,0,0-.59.33,1.28,1.28,0,0,0,.58,1l6.5,3.75a0.36,0.36,0,0,0,.59-0.33A1.28,1.28,0,0,0,291.41,58.31Z" fill="#7ac8f0"></path><path d="M291.4,61.18l-13.84-8a0.36,0.36,0,0,0-.59.33,1.28,1.28,0,0,0,.58,1l13.84,8a0.36,0.36,0,0,0,.59-0.33A1.28,1.28,0,0,0,291.4,61.18Z" fill="#ed5555"></path><path d="M275.56,52l-1.5-.87a0.36,0.36,0,0,0-.59.33,1.28,1.28,0,0,0,.58,1l1.5,0.87a0.36,0.36,0,0,0,.58-0.33A1.28,1.28,0,0,0,275.56,52Z" fill="#7efcbd"></path><path d="M271.89,49.92L268.56,48a0.36,0.36,0,0,0-.59.33,1.28,1.28,0,0,0,.58,1l3.33,1.93a0.36,0.36,0,0,0,.59-0.33A1.28,1.28,0,0,0,271.89,49.92Z" fill="#fff"></path><path d="M278.39,56.74l-9.84-5.68a0.36,0.36,0,0,0-.59.33,1.28,1.28,0,0,0,.58,1l9.84,5.68a0.36,0.36,0,0,0,.59-0.33A1.28,1.28,0,0,0,278.39,56.74Z" fill="#7ac8f0"></path><path d="M281.89,58.76l-1.5-.87a0.36,0.36,0,0,0-.59.33,1.28,1.28,0,0,0,.58,1l1.5,0.87a0.36,0.36,0,0,0,.59-0.33A1.28,1.28,0,0,0,281.89,58.76Z" fill="#fff"></path><path d="M291.39,64.25L284.06,60a0.36,0.36,0,0,0-.59.33,1.28,1.28,0,0,0,.58,1l7.34,4.24a0.36,0.36,0,0,0,.59-0.33A1.28,1.28,0,0,0,291.39,64.25Z" fill="#7efcbd"></path><path d="M275.55,58.17L274,57.3a0.36,0.36,0,0,0-.59.33,1.28,1.28,0,0,0,.58,1l1.5,0.87a0.36,0.36,0,0,0,.58-0.33A1.28,1.28,0,0,0,275.55,58.17Z" fill="#7efcbd"></path><path d="M271.88,56.05l-3.33-1.93a0.36,0.36,0,0,0-.59.33,1.28,1.28,0,0,0,.58,1l3.33,1.93a0.36,0.36,0,0,0,.59-0.33A1.28,1.28,0,0,0,271.88,56.05Z" fill="#fff"></path><path d="M291.35,79.2L280.68,73a0.36,0.36,0,0,0-.59.33,1.28,1.28,0,0,0,.58,1l10.67,6.16a0.36,0.36,0,0,0,.59-0.33A1.28,1.28,0,0,0,291.35,79.2Z" fill="#7efcbd"></path><path d="M278.68,71.88l-1.5-.87a0.36,0.36,0,0,0-.59.33,1.28,1.28,0,0,0,.58,1l1.5,0.87a0.36,0.36,0,0,0,.59-0.33A1.28,1.28,0,0,0,278.68,71.88Z" fill="#ed5555"></path><path d="M275,69.76L268.51,66a0.36,0.36,0,0,0-.59.33,1.28,1.28,0,0,0,.58,1L275,71.1a0.36,0.36,0,0,0,.59-0.33A1.28,1.28,0,0,0,275,69.76Z" fill="#7ac8f0"></path><path d="M282.36,70.93l-13.84-8a0.36,0.36,0,0,0-.59.33,1.28,1.28,0,0,0,.58,1l13.84,8a0.36,0.36,0,0,0,.59-0.33A1.28,1.28,0,0,0,282.36,70.93Z" fill="#ed5555"></path><path d="M285.86,73l-1.5-.87a0.36,0.36,0,0,0-.58.33,1.28,1.28,0,0,0,.58,1l1.5,0.87a0.36,0.36,0,0,0,.59-0.33A1.28,1.28,0,0,0,285.86,73Z" fill="#7efcbd"></path><path d="M291.37,73.06l-9.84-5.68a0.36,0.36,0,0,0-.59.33,1.28,1.28,0,0,0,.58,1l9.84,5.68a0.36,0.36,0,0,0,.59-0.33A1.28,1.28,0,0,0,291.37,73.06Z" fill="#7ac8f0"></path><path d="M279.53,66.23l-1.5-.87a0.36,0.36,0,0,0-.59.33,1.28,1.28,0,0,0,.58,1l1.5,0.87a0.36,0.36,0,0,0,.59-0.33A1.28,1.28,0,0,0,279.53,66.23Z" fill="#fff"></path><path d="M275.86,64.11l-7.34-4.24a0.36,0.36,0,0,0-.59.33,1.28,1.28,0,0,0,.58,1l7.34,4.24a0.36,0.36,0,0,0,.59-0.33A1.28,1.28,0,0,0,275.86,64.11Z" fill="#fff"></path><path d="M282.37,65l-13.84-8a0.36,0.36,0,0,0-.59.33,1.28,1.28,0,0,0,.58,1l13.84,8A0.36,0.36,0,0,0,283,66,1.28,1.28,0,0,0,282.37,65Z" fill="#7ac8f0"></path><path d="M285.87,67l-1.5-.87a0.36,0.36,0,0,0-.58.33,1.28,1.28,0,0,0,.58,1l1.5,0.87a0.36,0.36,0,0,0,.59-0.33A1.28,1.28,0,0,0,285.87,67Z" fill="#7efcbd"></path><path d="M291.38,70.19L288,68.26a0.36,0.36,0,0,0-.59.33,1.28,1.28,0,0,0,.58,1l3.33,1.93A0.36,0.36,0,0,0,292,71.2,1.28,1.28,0,0,0,291.38,70.19Z" fill="#fff"></path><path d="M282.34,76.87l-13.84-8a0.36,0.36,0,0,0-.59.33,1.28,1.28,0,0,0,.58,1l13.84,8a0.36,0.36,0,0,0,.59-0.33A1.28,1.28,0,0,0,282.34,76.87Z" fill="#fff"></path><path d="M285.84,78.89l-1.5-.87a0.36,0.36,0,0,0-.58.33,1.28,1.28,0,0,0,.58,1l1.5,0.87a0.36,0.36,0,0,0,.59-0.33A1.28,1.28,0,0,0,285.84,78.89Z" fill="#7efcbd"></path><polygon points="228.09 97.94 251.21 84.17 275.95 95.22 275.95 106.1 259.5 116.34 228.09 97.94" fill="#374785"></polygon><rect x="229.28" y="87.03" width="1.25" height="11.76" rx="0.44" ry="0.44" fill="#ebb893"></rect><rect x="258.88" y="104.58" width="1.25" height="11.76" rx="0.44" ry="0.44" fill="#ebb893"></rect><rect x="274.71" y="94.78" width="1.25" height="11.76" rx="0.44" ry="0.44" fill="#ebb893"></rect><polygon points="259.51 104.58 228.35 86.6 228.35 88.12 259.5 106.11 276.88 96.01 276.89 94.48 259.51 104.58" fill="#898989"></polygon><polygon points="276.89 94.48 259.51 104.58 228.35 86.6 245.73 76.5 276.89 94.48" fill="#d6d6d6"></polygon><polygon points="249.56 95.61 240.58 90.39 240.58 90.1 249.56 95.31 249.56 95.61" fill="#e9e9e9"></polygon><polygon points="249.56 95.31 240.58 90.1 243.4 88.47 252.38 93.68 249.56 95.31" fill="#f6f6f6"></polygon><polygon points="249.61 87.29 246.81 88.91 249.96 90.91 252.55 88.99 249.61 87.29" fill="#e9e9e9"></polygon><polygon points="250.68 86.7 249.07 87.56 252.22 89.28 253.62 88.4 250.68 86.7" fill="#c9c9c9"></polygon><polygon points="245 72.87 245.04 83.01 258.51 90.79 259 89.1 259 80.41 245 72.87" fill="#ff777b"></polygon><path d="M259.14,81a1.4,1.4,0,0,0-.67-1.11l-13.3-7.66a0.41,0.41,0,0,0-.67.39l0,10.06h0l0,1.07a1.11,1.11,0,0,0,.49.89l13.59,7.85c0.29,0.17.52,0,.52-0.36V91h0Zm-13.83-7.64,13,7.52,0,9.06-13-7.52Z" fill="#525252"></path><path d="M244.48,82.71L259.11,91v1.14a0.32,0.32,0,0,1-.46.35c-0.49-.19-13.51-7.8-13.51-7.8a1,1,0,0,1-.63-1A8,8,0,0,1,244.48,82.71Z" fill="#fff"></path><path d="M253.24,79.9a0.34,0.34,0,0,1,.15.25v0.23l-3.52-2V78.12A0.09,0.09,0,0,1,250,78Z" fill="#e3e3e3"></path><path d="M253.38,80.38l0,3.91a0.13,0.13,0,0,1-.2.12L250,82.6a0.45,0.45,0,0,1-.19-0.35l0-3.91Z" fill="#44494b"></path><path d="M250.76,123.09a4.94,4.94,0,0,0-4.46-.23,1.28,1.28,0,0,0-.86,1.53l0.94,2.46a0.44,0.44,0,0,0,.21.22,4.52,4.52,0,0,0,2.22.65,3.84,3.84,0,0,0,2.18-.8,1.83,1.83,0,0,1,.19.16l0.51-2.09h0A1.75,1.75,0,0,0,250.76,123.09Z" fill="#fff"></path><path d="M250.19,122.87a3.66,3.66,0,0,0-3.32,0,1,1,0,0,0,0,1.92,3.66,3.66,0,0,0,3.32,0A1,1,0,0,0,250.19,122.87Z" fill="#adadad"></path><path d="M250.45,123.75l1.78-7.64-1.7,4.38,0.66-4.28L250,119.59l0.14-6-0.59,5.31-0.13-7.08s-0.44,4.92-.92,8.05L248,112.37v8.33l-1.5-4.59,0.6,6-2.18-5.4,2,7.4h-0.09l-3-4.89,2.37,4.64c0.11,0.48.49,1.3,2.41,1.3S251,124,251,124l2.23-5.81Z" fill="#5fba68"></path><path d="M213.62,102.31a4.93,4.93,0,0,0-4.46-.12,1.34,1.34,0,0,0-.86,1.59l0.94,2.49a0.47,0.47,0,0,0,.21.24,4.5,4.5,0,0,0,2.22.66,3.85,3.85,0,0,0,2.18-.8c0.1-.08.17,0.06,0.19-0.06l0.51-2.3h0A1.46,1.46,0,0,0,213.62,102.31Z" fill="#fff"></path><path d="M213,102.31a3.66,3.66,0,0,0-3.32,0,1,1,0,0,0,0,1.92,3.66,3.66,0,0,0,3.32,0A1,1,0,0,0,213,102.31Z" fill="#adadad"></path><path d="M213.31,103.19l1.78-7.64-1.7,4.38,0.66-4.28L212.82,99,213,93l-0.59,5.31-0.13-7.08s-0.37,4.92-.85,8.05L211,91.81v8.33l-1.57-4.59,0.57,6-2.2-5.4,2,7.4h-0.09l-3-4.89,2.37,4.64c0.11,0.48.49,1.3,2.41,1.3s2.37-1.12,2.37-1.12l2.23-5.81Z" fill="#5fba68"></path><path d="M246.2,110.48l-3.94-1.73c-0.86-.38-1.71-0.78-2.58-1.13a0.37,0.37,0,0,0-.49,0,0.69,0.69,0,0,0-.07.35c0,2.18-.1,4.37-0.07,6.55a0.54,0.54,0,0,0,.12.44l0.1,0,7.11-3.95A0.42,0.42,0,0,0,246.2,110.48Z" fill="#374785"></path><path d="M238.22,107.7c-0.65.3-1.28,0.66-1.91,1-1.37.72-2.75,1.41-4.1,2.17a0.62,0.62,0,0,0-.19.55,0.47,0.47,0,0,1,.31.09c1.89,1.07,3.77,2.16,5.67,3.21a0.89,0.89,0,0,1,.52.6,0.72,0.72,0,0,0,.12-0.55c0-1.47,0-2.94.06-4.41a17.42,17.42,0,0,0,0-2.6C238.55,107.49,238.37,107.63,238.22,107.7Z" fill="#374785"></path><path d="M238.51,115.32c0-2.25.06-4.49,0.08-6.73,0-.31,0-0.62,0-0.94a0.33,0.33,0,0,1-.09-0.23,6.41,6.41,0,0,1,.08-1.8,0.74,0.74,0,0,1,.76,0,3.45,3.45,0,0,1,.09,1.31,0.89,0.89,0,0,1-.11.66,2.67,2.67,0,0,0-.06,1c0,2-.06,4-0.09,6,0,0.13,0,.26,0,0.4s0,0.14,0,.21a0.31,0.31,0,0,1-.23.31A0.33,0.33,0,0,1,238.51,115.32Z" fill="#4c4c4c"></path><path d="M243.26,103.69a1.19,1.19,0,0,1,.56-0.31l3.05,7.05,0.05,0.13a0.37,0.37,0,0,1,0,.49,0.34,0.34,0,0,1-.51-0.07,1.35,1.35,0,0,0-.19-0.44,4.73,4.73,0,0,1-.62-1.25c-0.73-1.71-1.49-3.42-2.21-5.13A0.57,0.57,0,0,1,243.26,103.69Z" fill="#4c4c4c"></path><path d="M234.16,103.54l0.59,0.34a0.82,0.82,0,0,1-.08.45c-0.73,2.07-1.49,4.13-2.21,6.2a0.92,0.92,0,0,1-.23.36l-0.22.51a0.35,0.35,0,0,1-.46,0,0.38,0.38,0,0,1,0-.46Z" fill="#4c4c4c"></path><path d="M245,101.89a0.82,0.82,0,0,1,0,1.56L240.67,106a3,3,0,0,1-2.69,0l-4.34-2.51a0.82,0.82,0,0,1,0-1.56l4.32-2.51a3,3,0,0,1,2.69,0Z" fill="#ff777b"></path><path d="M237.22,95.05a3,3,0,0,1,1.33,2l0.33,3.59c0.07,0.72-.42,1-1.09.61l-4.74-2.74a3,3,0,0,1-1.33-2l-0.33-3.59c-0.07-.72.42-1,1.08-0.61Z" fill="#ccc"></path><path d="M233.82,98.87a16.83,16.83,0,0,0-.26-1.78,0.43,0.43,0,0,1,.12-0.46,0.39,0.39,0,0,1,.44,0c0.33,0.16.67,0.33,1,.48a0.55,0.55,0,0,1,.35.46c0.12,0.79.25,1.58,0.38,2.38,0.17,1.09.33,2.17,0.52,3.26a0.35,0.35,0,0,1-.25.47c-0.25,0-.35-0.14-0.39-0.37-0.19-1.19-.39-2.38-0.58-3.58a0.14,0.14,0,0,1-.11-0.12c-0.09-.49-0.15-1-0.24-1.49a0.48,0.48,0,0,0-.34-0.46c0,0.58.15,1.11,0.24,1.65a1.28,1.28,0,0,1,0,.71l0.4,2.44c0,0.06,0,.12,0,0.18a0.32,0.32,0,1,1-.64.07c-0.09-.49-0.16-1-0.24-1.49,0-.27-0.1-0.54-0.15-0.81A10.21,10.21,0,0,0,233.82,98.87Z" fill="#4c4c4c"></path><path d="M239.47,100.24l-0.33-3.59a2.61,2.61,0,0,0-1.33-2l-4.74-2.74c-0.62-.32-0.82-0.1-0.85-0.08l-0.58.41a0.48,0.48,0,0,1,.16-0.07h0a0.78,0.78,0,0,1,.41,0l0,0,0.22,0.1,4.74,2.74a2.61,2.61,0,0,1,.59.49,2.68,2.68,0,0,1,.75,1.53l0.33,3.59a0.72,0.72,0,0,1-.23.69l0.58-.41A0.72,0.72,0,0,0,239.47,100.24Z" fill="#fff"></path><path d="M245,103.45L240.67,106a3,3,0,0,1-2.69,0l-4.34-2.51a1,1,0,0,1-.56-0.79v0.39a1,1,0,0,0,.56.79l4.34,2.51a3,3,0,0,0,2.69,0l4.32-2.51a0.94,0.94,0,0,0,.55-0.77v-0.39A0.94,0.94,0,0,1,245,103.45Z" fill="#9e4a4c"></path></svg>