<svg width="348.6" height="353.9" xmlns="http://www.w3.org/2000/svg" xmlns:xlink="http://www.w3.org/1999/xlink">
 <style type="text/css">.st0{fill:#C4D0D2;stroke:#000000;stroke-miterlimit:10;}
	.st1{clip-path:url(#XMLID_3_);fill:#161616;}
	.st2{fill:#353535;}
	.st3{fill:#A8CDE1;}
	.st4{fill:#161616;}
	.st5{clip-path:url(#XMLID_5_);fill:#161616;}
	.st6{clip-path:url(#XMLID_6_);fill:#161616;}
	.st7{fill:#689746;}
	.st8{fill:#125371;}</style>
 <g>
  <title>background</title>
  <rect fill="none" id="canvas_background" height="355.9" width="350.6" y="-1" x="-1"/>
 </g>
 <g>
  <title>Layer 1</title>
  <g id="Layer_1">
   <g id="XMLID_507_">
    <g id="XMLID_523_">
     <defs transform="translate(-25,-48) translate(-405,-194) ">
      <path d="m468.5,297.8c-14.8,5.5 -12.6,20.2 -5.5,30.7c5,7.4 136.5,195.5 148.6,205.4c8.8,7.1 20.8,7.9 40.8,-3.1s67.6,-36.3 83.6,-48c7.1,-5.2 7,-16 1.4,-23.2c-32.1,-40.8 -125,-155.1 -153.9,-187.7c-5.5,-6.2 -12.3,-4.9 -19.7,-2.5c-5.7,2.1 -84.6,24.4 -95.3,28.4z" id="XMLID_502_"/>
     </defs>
     <use x="-430" y="-242" id="svg_1" fill="#353535" xlink:href="#XMLID_502_"/>
     <clipPath transform="translate(-25,-48) translate(-405,-194) " id="XMLID_3_">
      <use id="svg_2" xlink:href="#XMLID_502_"/>
     </clipPath>
     <path d="m47.7,49.9c0,0 -27,6.5 -8.5,33c18.4,26.4 131.6,186.9 140.8,197.3c9.2,10.5 23.4,9.2 42.4,-0.6c19.1,-9.8 66.8,-39 76.2,-44.9c14.8,-9.2 6.8,-20.9 -1.8,-35c15.4,14.1 24.6,32 24.6,32l-17.2,35.7l-129.8,38.6l-166.6,-239.1l39.9,-17z" class="st1" id="XMLID_525_"/>
    </g>
    <g id="XMLID_521_">
     <defs transform="translate(-25,-48) translate(-405,-194) ">
      <path d="m481.4,299.6c-8.4,3.9 -12.4,11.8 -5.7,21.8c4.7,7.1 127.6,178.8 136.8,190.5c10.3,13.1 22.1,11.3 43,0.2c19.2,-10.1 63.3,-35.7 68.2,-39.8c6.4,-5.3 7.3,-12.9 1.9,-19.7c-33.1,-41.6 -113.8,-140.2 -143.2,-174.2c-5.2,-6 -11.7,-4.7 -18.7,-2.3c-5.4,2 -72.5,19 -82.3,23.5z" id="XMLID_501_"/>
     </defs>
     <use x="-430" y="-242" id="svg_3" fill="#FFFFFF" xlink:href="#XMLID_501_"/>
     <clipPath transform="translate(-25,-48) translate(-405,-194) " id="XMLID_4_">
      <use id="svg_4" xlink:href="#XMLID_501_"/>
     </clipPath>
     <use x="-430" y="-242" id="svg_5" fill="none" stroke="#FCFCFC" stroke-miterlimit="10" xlink:href="#XMLID_501_"/>
    </g>
    <path d="m69.3,49.7c0,0 7.4,9.2 14.1,6.8c6.8,-2.5 27.1,-7.4 34.4,-9.8c7.4,-2.5 7.4,-12.9 7.4,-12.9l-55.9,15.9z" class="st2" id="XMLID_520_"/>
    <ellipse ry="3" rx="2.9" cy="-110.241886" cx="228.650817" class="st3" transform="matrix(0.9075,-0.4201,0.4201,0.9075,-73.9785,244.0726) " id="XMLID_519_"/>
    <path d="m115.3,41l-19.2,5.5c-0.7,0.2 -1.5,-0.2 -1.7,-0.9l0,0c-0.2,-0.7 0.2,-1.5 0.9,-1.7l19.2,-5.5c0.7,-0.2 1.5,0.2 1.7,0.9l0,0c0.3,0.7 -0.1,1.5 -0.9,1.7z" class="st4" id="XMLID_517_"/>
    <g id="XMLID_509_">
     <defs transform="translate(-25,-48) translate(-405,-194) ">
      <path d="m471.2,333.4c1.3,0.2 11.5,15.7 12.2,16.9c1.1,1.9 -3.1,5.4 -5.1,2.5c-1.3,-1.8 -10.6,-14.6 -11,-16.1c-0.7,-2.7 2.1,-3.5 3.9,-3.3z" id="XMLID_292_"/>
     </defs>
     <use x="-430" y="-242" id="svg_6" fill="#454545" xlink:href="#XMLID_292_"/>
     <clipPath transform="translate(-25,-48) translate(-405,-194) " id="XMLID_5_">
      <use id="svg_7" xlink:href="#XMLID_292_"/>
     </clipPath>
     <path d="m35.5,93.6l0.8,3.6l13.1,16.2c0,0 3.4,-1.6 0.9,-5.2s-9.5,-15.4 -11.5,-15.7c-1.9,-0.3 -3.3,1.1 -3.3,1.1z" class="st5" id="XMLID_513_"/>
    </g>
    <g id="XMLID_504_">
     <defs transform="translate(-25,-48) translate(-405,-194) ">
      <path d="m486.2,354.9c1.3,0.2 11.5,15.7 12.2,16.9c1.1,1.9 -3.1,5.4 -5.1,2.5c-1.3,-1.8 -10.6,-14.6 -11,-16.1c-0.7,-2.7 2.1,-3.5 3.9,-3.3z" id="XMLID_503_"/>
     </defs>
     <use x="-430" y="-242" id="svg_8" fill="#454545" xlink:href="#XMLID_503_"/>
     <clipPath transform="translate(-25,-48) translate(-405,-194) " id="XMLID_6_">
      <use id="svg_9" xlink:href="#XMLID_503_"/>
     </clipPath>
     <path d="m50.5,115.1l0.8,3.6l13.1,16.2c0,0 3.4,-1.6 0.9,-5.2s-9.5,-15.4 -11.5,-15.7c-1.9,-0.3 -3.3,1.1 -3.3,1.1z" class="st6" id="XMLID_508_"/>
    </g>
    <g id="XMLID_271_">
     <path d="m210.4,135.1c-1.8,0.4 -3.7,0.8 -5.6,1.1c-3.2,-8.1 -8.4,-14.9 -15.2,-20.2c-6.9,-5.4 -14.6,-8.7 -23.2,-10.1c0.1,-1.8 0.1,-3.5 0.2,-5.3c0.6,0.1 1.2,0.2 1.8,0.3c2.2,0.6 4.5,1.1 6.6,1.7c3.3,1 6.5,2.4 9.6,4.1c2.5,1.4 5,2.9 7.3,4.6c2.5,1.8 4.8,3.8 6.9,6c1.8,1.9 3.5,3.8 5,5.9c2.1,2.9 3.9,5.9 5.4,9.1c0.5,1 0.9,1.9 1.2,2.8c0,0 0,0 0,0z" class="st7" id="XMLID_541_"/>
     <path d="m193.5,184.8c-3.6,0 -6.7,-0.4 -9.6,-1.2c-3.9,-1 -7.6,-2.3 -11.3,-4c-2.2,-1 -4.4,-1.9 -6.5,-3.1c-2.7,-1.4 -5.3,-3 -7.9,-4.6c-1.6,-1 -3.1,-2 -4.6,-3.1c-2.2,-1.7 -4.4,-3.4 -6.5,-5.2c-1.3,-1.1 -2.6,-2.2 -3.8,-3.4c-1.3,-1.3 -2.6,-2.6 -3.9,-3.9c-1.1,-1.1 -2.2,-2.3 -3.2,-3.5c-1.5,-1.8 -2.9,-3.6 -4.4,-5.4c-0.6,-0.8 -1.2,-1.6 -1.8,-2.4c-1,-1.6 -2,-3.2 -3,-4.8c-0.6,-0.9 -1.1,-1.9 -1.6,-2.9c-0.8,-1.7 -1.6,-3.4 -2.4,-5.1c-0.4,-0.9 -0.8,-1.8 -1.1,-2.7c-0.9,-2.6 -1.5,-5.3 -1.4,-8.1c0.1,-2.3 0.6,-4.4 2.1,-6.2c0.6,-0.7 1.3,-1.3 2,-1.9c2,-1.6 4,-3.2 6.1,-4.8c1.1,-0.8 2.1,-1.7 3.4,-2.1c2,-0.7 4,-0.5 5.9,0.5c1.3,0.7 2.4,1.7 3.5,2.6c1.3,1.1 2.7,2.2 4,3.3c2,1.7 4,3.3 6,5c1,0.9 1.8,2 2.1,3.4c0.2,0.9 0,1.8 -0.3,2.6c-0.5,1.1 -1.3,1.9 -2.1,2.7c-1.6,1.5 -3.2,3.1 -4.8,4.6c-0.4,0.4 -0.8,0.7 -1.2,1.1c-0.5,0.5 -0.6,0.9 -0.2,1.6c0.9,1.6 1.9,3.2 3,4.6c1.4,1.8 2.9,3.6 4.6,5.2c1.8,1.8 3.7,3.5 5.6,5.2c1.6,1.4 3.2,2.7 4.9,3.8c2,1.4 4,2.7 6.1,3.9c1.7,1 3.5,1.9 5.4,2.6c0.7,0.3 1.3,0.5 2,0.8c0.5,0.2 0.9,0 1.2,-0.4c0.7,-0.8 1.3,-1.7 1.9,-2.5c1.1,-1.4 2.1,-2.8 3.2,-4.1c0.6,-0.8 1.2,-1.5 2,-2.1c1.6,-1.3 3.5,-1.4 5.4,-0.7c1.4,0.5 2.5,1.6 3.7,2.5c1.2,1 2.4,1.9 3.6,2.9c1.4,1.1 2.7,2.3 4.1,3.4c1.1,0.9 2.3,1.8 3.4,2.8c1.5,1.3 2.6,2.9 2.9,4.9c0.2,1.5 -0.1,2.9 -0.8,4.2c-0.8,1.4 -1.7,2.7 -2.5,4.1c-0.8,1.3 -1.6,2.6 -2.3,3.9c-1.4,2.5 -3.4,4.3 -6.2,5.1c-1.7,0.8 -3.4,0.9 -4.7,0.9z" class="st7" id="XMLID_540_"/>
     <path d="m195,136.6c-2,0.4 -4,0.8 -6,1.2c-4,-9.8 -11.3,-15.4 -21.6,-17.2c0.1,-1.9 0.1,-3.8 0.2,-5.8c5.7,0.8 10.9,2.9 15.6,6.3c5.4,3.9 9.4,9.1 11.8,15.5z" class="st7" id="XMLID_539_"/>
    </g>
   </g>
   <ellipse ry="9.8" rx="105.5" cy="325.5" cx="195" class="st8" id="XMLID_815_"/>
  </g>
 </g>
</svg>