<svg id="process-ombre_plaque" data-name="ombre plaque" xmlns="http://www.w3.org/2000/svg" viewBox="0 0 500 500"><title>processus</title><g opacity="0.5"><path d="M148.2,285.21a0.52,0.52,0,0,1,.3.06l-0.58-.34-0.08,0a0.55,0.55,0,0,0-.22,0h0l-0.15,0-0.2.09-44.28,25.56a3.2,3.2,0,0,0-.42.37,5.79,5.79,0,0,0-.35.55s-0.12.3-.13,0.34a1.63,1.63,0,0,0-.07.43l0.1,34.45a0.68,0.68,0,0,0,.28.62l0.58,0.34a0.68,0.68,0,0,1-.28-0.62l-0.1-34.45a1.64,1.64,0,0,1,.07-0.43l0-.11a2.26,2.26,0,0,1,.1-0.23,2.36,2.36,0,0,1,.2-0.35,2.28,2.28,0,0,1,.15-0.21l0.08-.09a1.67,1.67,0,0,1,.34-0.27l44.28-25.56a0.93,0.93,0,0,1,.35-0.12h0Z" fill="#d2d2d2"></path><path d="M147.8,285.34a0.6,0.6,0,0,1,1,.56l0.1,34.45a2.15,2.15,0,0,1-1,1.68l-44.28,25.56a0.6,0.6,0,0,1-1-.56l-0.1-34.45a2.15,2.15,0,0,1,1-1.68Z" fill="#fdfdfd"></path><g style="isolation:isolate"><path d="M108.44,311.9L104.88,314a0.61,0.61,0,0,0-.27.48v4.1a0.17,0.17,0,0,0,.28.16l3.57-2.06a0.61,0.61,0,0,0,.28-0.48v-4.1a0.17,0.17,0,0,0-.28-0.16" fill="#dde5ed"></path><path d="M108.46,317.65l-3.57,2.06a0.61,0.61,0,0,0-.27.48v4.1a0.17,0.17,0,0,0,.28.16l3.57-2.06a0.61,0.61,0,0,0,.28-0.48v-4.1a0.17,0.17,0,0,0-.28-0.16" fill="#f2f2f2"></path><path d="M108.48,323.74l-3.57,2.06a0.61,0.61,0,0,0-.27.48v4.1a0.17,0.17,0,0,0,.28.16l3.57-2.06a0.61,0.61,0,0,0,.28-0.48v-4.1a0.17,0.17,0,0,0-.28-0.16" fill="#f2f2f2"></path><path d="M108.5,330.16l-3.57,2.06a0.61,0.61,0,0,0-.27.48v4.1a0.17,0.17,0,0,0,.28.16l3.57-2.06a0.61,0.61,0,0,0,.28-0.48v-4.1a0.17,0.17,0,0,0-.28-0.16" fill="#f2f2f2"></path><path d="M145.9,290.27l-34.63,20a1.73,1.73,0,0,0-.78,1.36l0,14.76a0.48,0.48,0,0,0,.79.45l34.63-20a1.73,1.73,0,0,0,.78-1.36l0-14.76a0.48,0.48,0,0,0-.79-0.45" fill="#dde5ed"></path><path d="M130.12,317.68L111,328.73a1,1,0,0,0-.43.75v0a0.26,0.26,0,0,0,.43.25l19.15-11.06a1,1,0,0,0,.43-0.75v0a0.26,0.26,0,0,0-.43-0.25" fill="#d9d9d9"></path><path d="M130.13,320L111,331.1a1,1,0,0,0-.43.75v0a0.26,0.26,0,0,0,.43.25l19.15-11.06a1,1,0,0,0,.43-0.75v0a0.26,0.26,0,0,0-.43-0.25" fill="#d9d9d9"></path><path d="M130.13,322.41L111,333.47a1,1,0,0,0-.43.75v0a0.26,0.26,0,0,0,.43.25l19.15-11.06a1,1,0,0,0,.43-0.75v0a0.26,0.26,0,0,0-.43-0.25" fill="#d9d9d9"></path><path d="M130.14,324.78L111,335.84a1,1,0,0,0-.43.75v0a0.26,0.26,0,0,0,.43.25l19.15-11.06a1,1,0,0,0,.43-0.75v0a0.26,0.26,0,0,0-.43-0.25" fill="#d9d9d9"></path><path d="M120.26,332.85l-9.38,5.42a0.68,0.68,0,0,0-.31.54v0.3a0.19,0.19,0,0,0,.31.18l9.38-5.42a0.69,0.69,0,0,0,.31-0.54V333a0.19,0.19,0,0,0-.31-0.18" fill="#d9d9d9"></path><path d="M145.28,308.92l-12.68,7.32a1.91,1.91,0,0,0-.87,1.5l0,8.83a0.53,0.53,0,0,0,.87.5l12.68-7.32a1.91,1.91,0,0,0,.87-1.5l0-8.83a0.53,0.53,0,0,0-.87-0.5" fill="#dde5ed"></path></g></g><g opacity="0.5"><path d="M201.2,255.21a0.52,0.52,0,0,1,.3.06l-0.58-.34-0.08,0a0.55,0.55,0,0,0-.22,0h0l-0.15,0-0.2.09-44.28,25.56a3.2,3.2,0,0,0-.42.37,5.79,5.79,0,0,0-.35.55s-0.12.3-.13,0.34a1.63,1.63,0,0,0-.07.43l0.1,34.45a0.68,0.68,0,0,0,.28.62l0.58,0.34a0.68,0.68,0,0,1-.28-0.62l-0.1-34.45a1.64,1.64,0,0,1,.07-0.43l0-.11a2.26,2.26,0,0,1,.1-0.23,2.36,2.36,0,0,1,.2-0.35,2.28,2.28,0,0,1,.15-0.21l0.08-.09a1.67,1.67,0,0,1,.34-0.27l44.28-25.56a0.93,0.93,0,0,1,.35-0.12h0Z" fill="#d2d2d2"></path><path d="M200.8,255.34a0.6,0.6,0,0,1,1,.56l0.1,34.45a2.15,2.15,0,0,1-1,1.68l-44.28,25.56a0.6,0.6,0,0,1-1-.56l-0.1-34.45a2.15,2.15,0,0,1,1-1.68Z" fill="#fdfdfd"></path><g style="isolation:isolate"><path d="M161.44,281.9L157.88,284a0.61,0.61,0,0,0-.27.48v4.1a0.17,0.17,0,0,0,.28.16l3.57-2.06a0.61,0.61,0,0,0,.28-0.48v-4.1a0.17,0.17,0,0,0-.28-0.16" fill="#dde5ed"></path><path d="M161.46,287.65l-3.57,2.06a0.61,0.61,0,0,0-.27.48v4.1a0.17,0.17,0,0,0,.28.16l3.57-2.06a0.61,0.61,0,0,0,.28-0.48v-4.1a0.17,0.17,0,0,0-.28-0.16" fill="#f2f2f2"></path><path d="M161.48,293.74l-3.57,2.06a0.61,0.61,0,0,0-.27.48v4.1a0.17,0.17,0,0,0,.28.16l3.57-2.06a0.61,0.61,0,0,0,.28-0.48v-4.1a0.17,0.17,0,0,0-.28-0.16" fill="#f2f2f2"></path><path d="M161.5,300.16l-3.57,2.06a0.61,0.61,0,0,0-.27.48v4.1a0.17,0.17,0,0,0,.28.16l3.57-2.06a0.61,0.61,0,0,0,.28-0.48v-4.1a0.17,0.17,0,0,0-.28-0.16" fill="#f2f2f2"></path><path d="M198.9,260.27l-34.63,20a1.73,1.73,0,0,0-.78,1.36l0,14.76a0.48,0.48,0,0,0,.79.45l34.63-20a1.73,1.73,0,0,0,.78-1.36l0-14.76a0.48,0.48,0,0,0-.79-0.45" fill="#dde5ed"></path><path d="M183.12,287.68L164,298.73a1,1,0,0,0-.43.75v0a0.26,0.26,0,0,0,.43.25l19.15-11.06a1,1,0,0,0,.43-0.75v0a0.26,0.26,0,0,0-.43-0.25" fill="#d9d9d9"></path><path d="M183.13,290L164,301.1a1,1,0,0,0-.43.75v0a0.26,0.26,0,0,0,.43.25l19.15-11.06a1,1,0,0,0,.43-0.75v0a0.26,0.26,0,0,0-.43-0.25" fill="#d9d9d9"></path><path d="M183.13,292.41L164,303.47a1,1,0,0,0-.43.75v0a0.26,0.26,0,0,0,.43.25l19.15-11.06a1,1,0,0,0,.43-0.75v0a0.26,0.26,0,0,0-.43-0.25" fill="#d9d9d9"></path><path d="M183.14,294.78L164,305.84a1,1,0,0,0-.43.75v0a0.26,0.26,0,0,0,.43.25l19.15-11.06a1,1,0,0,0,.43-0.75v0a0.26,0.26,0,0,0-.43-0.25" fill="#d9d9d9"></path><path d="M173.26,302.85l-9.38,5.42a0.68,0.68,0,0,0-.31.54v0.3a0.19,0.19,0,0,0,.31.18l9.38-5.42a0.69,0.69,0,0,0,.31-0.54V303a0.19,0.19,0,0,0-.31-0.18" fill="#d9d9d9"></path><path d="M198.28,278.92l-12.68,7.32a1.91,1.91,0,0,0-.87,1.5l0,8.83a0.53,0.53,0,0,0,.87.5l12.68-7.32a1.91,1.91,0,0,0,.87-1.5l0-8.83a0.53,0.53,0,0,0-.87-0.5" fill="#dde5ed"></path></g></g><g opacity="0.5"><path d="M254.2,225.21a0.52,0.52,0,0,1,.3.06l-0.58-.34-0.08,0a0.55,0.55,0,0,0-.22,0h0l-0.15,0-0.2.09-44.28,25.56a3.2,3.2,0,0,0-.42.37,5.79,5.79,0,0,0-.35.55s-0.12.3-.13,0.34a1.63,1.63,0,0,0-.07.43l0.1,34.45a0.68,0.68,0,0,0,.28.62l0.58,0.34a0.68,0.68,0,0,1-.28-0.62l-0.1-34.45a1.64,1.64,0,0,1,.07-0.43l0-.11a2.26,2.26,0,0,1,.1-0.23,2.36,2.36,0,0,1,.2-0.35,2.28,2.28,0,0,1,.15-0.21l0.08-.09a1.67,1.67,0,0,1,.34-0.27l44.28-25.56a0.93,0.93,0,0,1,.35-0.12h0Z" fill="#d2d2d2"></path><path d="M253.8,225.34a0.6,0.6,0,0,1,1,.56l0.1,34.45a2.15,2.15,0,0,1-1,1.68l-44.28,25.56a0.6,0.6,0,0,1-1-.56l-0.1-34.45a2.15,2.15,0,0,1,1-1.68Z" fill="#fdfdfd"></path><g style="isolation:isolate"><path d="M214.44,251.9L210.88,254a0.61,0.61,0,0,0-.27.48v4.1a0.17,0.17,0,0,0,.28.16l3.57-2.06a0.61,0.61,0,0,0,.28-0.48v-4.1a0.17,0.17,0,0,0-.28-0.16" fill="#dde5ed"></path><path d="M214.46,257.65l-3.57,2.06a0.61,0.61,0,0,0-.27.48v4.1a0.17,0.17,0,0,0,.28.16l3.57-2.06a0.61,0.61,0,0,0,.28-0.48v-4.1a0.17,0.17,0,0,0-.28-0.16" fill="#f2f2f2"></path><path d="M214.48,263.74l-3.57,2.06a0.61,0.61,0,0,0-.27.48v4.1a0.17,0.17,0,0,0,.28.16l3.57-2.06a0.61,0.61,0,0,0,.28-0.48v-4.1a0.17,0.17,0,0,0-.28-0.16" fill="#f2f2f2"></path><path d="M214.5,270.16l-3.57,2.06a0.61,0.61,0,0,0-.27.48v4.1a0.17,0.17,0,0,0,.28.16l3.57-2.06a0.61,0.61,0,0,0,.28-0.48v-4.1a0.17,0.17,0,0,0-.28-0.16" fill="#f2f2f2"></path><path d="M251.9,230.27l-34.63,20a1.73,1.73,0,0,0-.78,1.36l0,14.76a0.48,0.48,0,0,0,.79.45l34.63-20a1.73,1.73,0,0,0,.78-1.36l0-14.76a0.48,0.48,0,0,0-.79-0.45" fill="#dde5ed"></path><path d="M236.12,257.68L217,268.73a1,1,0,0,0-.43.75v0a0.26,0.26,0,0,0,.43.25l19.15-11.06a1,1,0,0,0,.43-0.75v0a0.26,0.26,0,0,0-.43-0.25" fill="#d9d9d9"></path><path d="M236.13,260L217,271.1a1,1,0,0,0-.43.75v0a0.26,0.26,0,0,0,.43.25l19.15-11.06a1,1,0,0,0,.43-0.75v0a0.26,0.26,0,0,0-.43-0.25" fill="#d9d9d9"></path><path d="M236.13,262.41L217,273.47a1,1,0,0,0-.43.75v0a0.26,0.26,0,0,0,.43.25l19.15-11.06a1,1,0,0,0,.43-0.75v0a0.26,0.26,0,0,0-.43-0.25" fill="#d9d9d9"></path><path d="M236.14,264.78L217,275.84a1,1,0,0,0-.43.75v0a0.26,0.26,0,0,0,.43.25l19.15-11.06a1,1,0,0,0,.43-0.75v0a0.26,0.26,0,0,0-.43-0.25" fill="#d9d9d9"></path><path d="M226.26,272.85l-9.38,5.42a0.68,0.68,0,0,0-.31.54v0.3a0.19,0.19,0,0,0,.31.18l9.38-5.42a0.69,0.69,0,0,0,.31-0.54V273a0.19,0.19,0,0,0-.31-0.18" fill="#d9d9d9"></path><path d="M251.28,248.92l-12.68,7.32a1.91,1.91,0,0,0-.87,1.5l0,8.83a0.53,0.53,0,0,0,.87.5l12.68-7.32a1.91,1.91,0,0,0,.87-1.5l0-8.83a0.53,0.53,0,0,0-.87-0.5" fill="#dde5ed"></path></g></g><g opacity="0.5"><path d="M307.2,195.21a0.52,0.52,0,0,1,.3.06l-0.58-.34-0.08,0a0.55,0.55,0,0,0-.22,0h0l-0.15,0-0.2.09-44.28,25.56a3.2,3.2,0,0,0-.42.37,5.79,5.79,0,0,0-.35.55s-0.12.3-.13,0.34a1.63,1.63,0,0,0-.07.43l0.1,34.45a0.68,0.68,0,0,0,.28.62l0.58,0.34a0.68,0.68,0,0,1-.28-0.62l-0.1-34.45a1.64,1.64,0,0,1,.07-0.43l0-.11a2.26,2.26,0,0,1,.1-0.23,2.36,2.36,0,0,1,.2-0.35,2.28,2.28,0,0,1,.15-0.21l0.08-.09a1.67,1.67,0,0,1,.34-0.27l44.28-25.56a0.93,0.93,0,0,1,.35-0.12h0Z" fill="#d2d2d2"></path><path d="M306.8,195.34a0.6,0.6,0,0,1,1,.56l0.1,34.45a2.15,2.15,0,0,1-1,1.68l-44.28,25.56a0.6,0.6,0,0,1-1-.56l-0.1-34.45a2.15,2.15,0,0,1,1-1.68Z" fill="#fdfdfd"></path><g style="isolation:isolate"><path d="M267.44,221.9L263.88,224a0.61,0.61,0,0,0-.27.48v4.1a0.17,0.17,0,0,0,.28.16l3.57-2.06a0.61,0.61,0,0,0,.28-0.48v-4.1a0.17,0.17,0,0,0-.28-0.16" fill="#dde5ed"></path><path d="M267.46,227.65l-3.57,2.06a0.61,0.61,0,0,0-.27.48v4.1a0.17,0.17,0,0,0,.28.16l3.57-2.06a0.61,0.61,0,0,0,.28-0.48v-4.1a0.17,0.17,0,0,0-.28-0.16" fill="#f2f2f2"></path><path d="M267.48,233.74l-3.57,2.06a0.61,0.61,0,0,0-.27.48v4.1a0.17,0.17,0,0,0,.28.16l3.57-2.06a0.61,0.61,0,0,0,.28-0.48v-4.1a0.17,0.17,0,0,0-.28-0.16" fill="#f2f2f2"></path><path d="M267.5,240.16l-3.57,2.06a0.61,0.61,0,0,0-.27.48v4.1a0.17,0.17,0,0,0,.28.16l3.57-2.06a0.61,0.61,0,0,0,.28-0.48v-4.1a0.17,0.17,0,0,0-.28-0.16" fill="#f2f2f2"></path><path d="M304.9,200.27l-34.63,20a1.73,1.73,0,0,0-.78,1.36l0,14.76a0.48,0.48,0,0,0,.79.45l34.63-20a1.73,1.73,0,0,0,.78-1.36l0-14.76a0.48,0.48,0,0,0-.79-0.45" fill="#dde5ed"></path><path d="M289.12,227.68L270,238.73a1,1,0,0,0-.43.75v0a0.26,0.26,0,0,0,.43.25l19.15-11.06a1,1,0,0,0,.43-0.75v0a0.26,0.26,0,0,0-.43-0.25" fill="#d9d9d9"></path><path d="M289.13,230L270,241.1a1,1,0,0,0-.43.75v0a0.26,0.26,0,0,0,.43.25l19.15-11.06a1,1,0,0,0,.43-0.75v0a0.26,0.26,0,0,0-.43-0.25" fill="#d9d9d9"></path><path d="M289.13,232.41L270,243.47a1,1,0,0,0-.43.75v0a0.26,0.26,0,0,0,.43.25l19.15-11.06a1,1,0,0,0,.43-0.75v0a0.26,0.26,0,0,0-.43-0.25" fill="#d9d9d9"></path><path d="M289.14,234.78L270,245.84a1,1,0,0,0-.43.75v0a0.26,0.26,0,0,0,.43.25l19.15-11.06a1,1,0,0,0,.43-0.75v0a0.26,0.26,0,0,0-.43-0.25" fill="#d9d9d9"></path><path d="M279.26,242.85l-9.38,5.42a0.68,0.68,0,0,0-.31.54v0.3a0.19,0.19,0,0,0,.31.18l9.38-5.42a0.69,0.69,0,0,0,.31-0.54V243a0.19,0.19,0,0,0-.31-0.18" fill="#d9d9d9"></path><path d="M304.28,218.92l-12.68,7.32a1.91,1.91,0,0,0-.87,1.5l0,8.83a0.53,0.53,0,0,0,.87.5l12.68-7.32a1.91,1.91,0,0,0,.87-1.5l0-8.83a0.53,0.53,0,0,0-.87-0.5" fill="#dde5ed"></path></g></g><g opacity="0.5"><path d="M360.2,165.21a0.52,0.52,0,0,1,.3.06l-0.58-.34-0.08,0a0.55,0.55,0,0,0-.22,0h0l-0.15,0-0.2.09-44.28,25.56a3.2,3.2,0,0,0-.42.37,5.79,5.79,0,0,0-.35.55s-0.12.3-.13,0.34a1.63,1.63,0,0,0-.07.43l0.1,34.45a0.68,0.68,0,0,0,.28.62l0.58,0.34a0.68,0.68,0,0,1-.28-0.62l-0.1-34.45a1.64,1.64,0,0,1,.07-0.43l0-.11a2.26,2.26,0,0,1,.1-0.23,2.36,2.36,0,0,1,.2-0.35,2.28,2.28,0,0,1,.15-0.21l0.08-.09a1.67,1.67,0,0,1,.34-0.27l44.28-25.56a0.93,0.93,0,0,1,.35-0.12h0Z" fill="#d2d2d2"></path><path d="M359.8,165.34a0.6,0.6,0,0,1,1,.56l0.1,34.45a2.15,2.15,0,0,1-1,1.68l-44.28,25.56a0.6,0.6,0,0,1-1-.56l-0.1-34.45a2.15,2.15,0,0,1,1-1.68Z" fill="#fdfdfd"></path><g style="isolation:isolate"><path d="M320.44,191.9L316.88,194a0.61,0.61,0,0,0-.27.48v4.1a0.17,0.17,0,0,0,.28.16l3.57-2.06a0.61,0.61,0,0,0,.28-0.48v-4.1a0.17,0.17,0,0,0-.28-0.16" fill="#dde5ed"></path><path d="M320.46,197.65l-3.57,2.06a0.61,0.61,0,0,0-.27.48v4.1a0.17,0.17,0,0,0,.28.16l3.57-2.06a0.61,0.61,0,0,0,.28-0.48v-4.1a0.17,0.17,0,0,0-.28-0.16" fill="#f2f2f2"></path><path d="M320.48,203.74l-3.57,2.06a0.61,0.61,0,0,0-.27.48v4.1a0.17,0.17,0,0,0,.28.16l3.57-2.06a0.61,0.61,0,0,0,.28-0.48v-4.1a0.17,0.17,0,0,0-.28-0.16" fill="#f2f2f2"></path><path d="M320.5,210.16l-3.57,2.06a0.61,0.61,0,0,0-.27.48v4.1a0.17,0.17,0,0,0,.28.16l3.57-2.06a0.61,0.61,0,0,0,.28-0.48v-4.1a0.17,0.17,0,0,0-.28-0.16" fill="#f2f2f2"></path><path d="M357.9,170.27l-34.63,20a1.73,1.73,0,0,0-.78,1.36l0,14.76a0.48,0.48,0,0,0,.79.45l34.63-20a1.73,1.73,0,0,0,.78-1.36l0-14.76a0.48,0.48,0,0,0-.79-0.45" fill="#dde5ed"></path><path d="M342.12,197.68L323,208.73a1,1,0,0,0-.43.75v0a0.26,0.26,0,0,0,.43.25l19.15-11.06a1,1,0,0,0,.43-0.75v0a0.26,0.26,0,0,0-.43-0.25" fill="#d9d9d9"></path><path d="M342.13,200L323,211.1a1,1,0,0,0-.43.75v0a0.26,0.26,0,0,0,.43.25l19.15-11.06a1,1,0,0,0,.43-0.75v0a0.26,0.26,0,0,0-.43-0.25" fill="#d9d9d9"></path><path d="M342.13,202.41L323,213.47a1,1,0,0,0-.43.75v0a0.26,0.26,0,0,0,.43.25l19.15-11.06a1,1,0,0,0,.43-0.75v0a0.26,0.26,0,0,0-.43-0.25" fill="#d9d9d9"></path><path d="M342.14,204.78L323,215.84a1,1,0,0,0-.43.75v0a0.26,0.26,0,0,0,.43.25l19.15-11.06a1,1,0,0,0,.43-0.75v0a0.26,0.26,0,0,0-.43-0.25" fill="#d9d9d9"></path><path d="M332.26,212.85l-9.38,5.42a0.68,0.68,0,0,0-.31.54v0.3a0.19,0.19,0,0,0,.31.18l9.38-5.42a0.69,0.69,0,0,0,.31-0.54V213a0.19,0.19,0,0,0-.31-0.18" fill="#d9d9d9"></path><path d="M357.28,188.92l-12.68,7.32a1.91,1.91,0,0,0-.87,1.5l0,8.83a0.53,0.53,0,0,0,.87.5l12.68-7.32a1.91,1.91,0,0,0,.87-1.5l0-8.83a0.53,0.53,0,0,0-.87-0.5" fill="#dde5ed"></path></g></g><g opacity="0.5"><path d="M148.2,237.21a0.52,0.52,0,0,1,.3.06l-0.58-.34-0.08,0a0.55,0.55,0,0,0-.22,0h0l-0.15,0-0.2.09-44.28,25.56a3.2,3.2,0,0,0-.42.37,5.79,5.79,0,0,0-.35.55s-0.12.3-.13,0.34a1.63,1.63,0,0,0-.07.43l0.1,34.45a0.68,0.68,0,0,0,.28.62l0.58,0.34a0.68,0.68,0,0,1-.28-0.62l-0.1-34.45a1.64,1.64,0,0,1,.07-0.43l0-.11a2.26,2.26,0,0,1,.1-0.23,2.36,2.36,0,0,1,.2-0.35,2.28,2.28,0,0,1,.15-0.21l0.08-.09a1.67,1.67,0,0,1,.34-0.27l44.28-25.56a0.93,0.93,0,0,1,.35-0.12h0Z" fill="#d2d2d2"></path><path d="M147.8,237.34a0.6,0.6,0,0,1,1,.56l0.1,34.45a2.15,2.15,0,0,1-1,1.68l-44.28,25.56a0.6,0.6,0,0,1-1-.56l-0.1-34.45a2.15,2.15,0,0,1,1-1.68Z" fill="#fdfdfd"></path><g style="isolation:isolate"><path d="M108.44,263.9L104.88,266a0.61,0.61,0,0,0-.27.48v4.1a0.17,0.17,0,0,0,.28.16l3.57-2.06a0.61,0.61,0,0,0,.28-0.48v-4.1a0.17,0.17,0,0,0-.28-0.16" fill="#dde5ed"></path><path d="M108.46,269.65l-3.57,2.06a0.61,0.61,0,0,0-.27.48v4.1a0.17,0.17,0,0,0,.28.16l3.57-2.06a0.61,0.61,0,0,0,.28-0.48v-4.1a0.17,0.17,0,0,0-.28-0.16" fill="#f2f2f2"></path><path d="M108.48,275.74l-3.57,2.06a0.61,0.61,0,0,0-.27.48v4.1a0.17,0.17,0,0,0,.28.16l3.57-2.06a0.61,0.61,0,0,0,.28-0.48v-4.1a0.17,0.17,0,0,0-.28-0.16" fill="#f2f2f2"></path><path d="M108.5,282.16l-3.57,2.06a0.61,0.61,0,0,0-.27.48v4.1a0.17,0.17,0,0,0,.28.16l3.57-2.06a0.61,0.61,0,0,0,.28-0.48v-4.1a0.17,0.17,0,0,0-.28-0.16" fill="#f2f2f2"></path><path d="M145.9,242.27l-34.63,20a1.73,1.73,0,0,0-.78,1.36l0,14.76a0.48,0.48,0,0,0,.79.45l34.63-20a1.73,1.73,0,0,0,.78-1.36l0-14.76a0.48,0.48,0,0,0-.79-0.45" fill="#dde5ed"></path><path d="M130.12,269.68L111,280.73a1,1,0,0,0-.43.75v0a0.26,0.26,0,0,0,.43.25l19.15-11.06a1,1,0,0,0,.43-0.75v0a0.26,0.26,0,0,0-.43-0.25" fill="#d9d9d9"></path><path d="M130.13,272L111,283.1a1,1,0,0,0-.43.75v0a0.26,0.26,0,0,0,.43.25l19.15-11.06a1,1,0,0,0,.43-0.75v0a0.26,0.26,0,0,0-.43-0.25" fill="#d9d9d9"></path><path d="M130.13,274.41L111,285.47a1,1,0,0,0-.43.75v0a0.26,0.26,0,0,0,.43.25l19.15-11.06a1,1,0,0,0,.43-0.75v0a0.26,0.26,0,0,0-.43-0.25" fill="#d9d9d9"></path><path d="M130.14,276.78L111,287.84a1,1,0,0,0-.43.75v0a0.26,0.26,0,0,0,.43.25l19.15-11.06a1,1,0,0,0,.43-0.75v0a0.26,0.26,0,0,0-.43-0.25" fill="#d9d9d9"></path><path d="M120.26,284.85l-9.38,5.42a0.68,0.68,0,0,0-.31.54v0.3a0.19,0.19,0,0,0,.31.18l9.38-5.42a0.69,0.69,0,0,0,.31-0.54V285a0.19,0.19,0,0,0-.31-0.18" fill="#d9d9d9"></path><path d="M145.28,260.92l-12.68,7.32a1.91,1.91,0,0,0-.87,1.5l0,8.83a0.53,0.53,0,0,0,.87.5l12.68-7.32a1.91,1.91,0,0,0,.87-1.5l0-8.83a0.53,0.53,0,0,0-.87-0.5" fill="#dde5ed"></path></g></g><g opacity="0.5"><path d="M201.2,207.21a0.52,0.52,0,0,1,.3.06l-0.58-.34-0.08,0a0.55,0.55,0,0,0-.22,0h0l-0.15,0-0.2.09-44.28,25.56a3.2,3.2,0,0,0-.42.37,5.79,5.79,0,0,0-.35.55s-0.12.3-.13,0.34a1.63,1.63,0,0,0-.07.43l0.1,34.45a0.68,0.68,0,0,0,.28.62l0.58,0.34a0.68,0.68,0,0,1-.28-0.62l-0.1-34.45a1.64,1.64,0,0,1,.07-0.43l0-.11a2.26,2.26,0,0,1,.1-0.23,2.36,2.36,0,0,1,.2-0.35,2.28,2.28,0,0,1,.15-0.21l0.08-.09a1.67,1.67,0,0,1,.34-0.27l44.28-25.56a0.93,0.93,0,0,1,.35-0.12h0Z" fill="#d2d2d2"></path><path d="M200.8,207.34a0.6,0.6,0,0,1,1,.56l0.1,34.45a2.15,2.15,0,0,1-1,1.68l-44.28,25.56a0.6,0.6,0,0,1-1-.56l-0.1-34.45a2.15,2.15,0,0,1,1-1.68Z" fill="#fdfdfd"></path><g style="isolation:isolate"><path d="M161.44,233.9L157.88,236a0.61,0.61,0,0,0-.27.48v4.1a0.17,0.17,0,0,0,.28.16l3.57-2.06a0.61,0.61,0,0,0,.28-0.48v-4.1a0.17,0.17,0,0,0-.28-0.16" fill="#dde5ed"></path><path d="M161.46,239.65l-3.57,2.06a0.61,0.61,0,0,0-.27.48v4.1a0.17,0.17,0,0,0,.28.16l3.57-2.06a0.61,0.61,0,0,0,.28-0.48v-4.1a0.17,0.17,0,0,0-.28-0.16" fill="#f2f2f2"></path><path d="M161.48,245.74l-3.57,2.06a0.61,0.61,0,0,0-.27.48v4.1a0.17,0.17,0,0,0,.28.16l3.57-2.06a0.61,0.61,0,0,0,.28-0.48v-4.1a0.17,0.17,0,0,0-.28-0.16" fill="#f2f2f2"></path><path d="M161.5,252.16l-3.57,2.06a0.61,0.61,0,0,0-.27.48v4.1a0.17,0.17,0,0,0,.28.16l3.57-2.06a0.61,0.61,0,0,0,.28-0.48v-4.1a0.17,0.17,0,0,0-.28-0.16" fill="#f2f2f2"></path><path d="M198.9,212.27l-34.63,20a1.73,1.73,0,0,0-.78,1.36l0,14.76a0.48,0.48,0,0,0,.79.45l34.63-20a1.73,1.73,0,0,0,.78-1.36l0-14.76a0.48,0.48,0,0,0-.79-0.45" fill="#dde5ed"></path><path d="M183.12,239.68L164,250.73a1,1,0,0,0-.43.75v0a0.26,0.26,0,0,0,.43.25l19.15-11.06a1,1,0,0,0,.43-0.75v0a0.26,0.26,0,0,0-.43-0.25" fill="#d9d9d9"></path><path d="M183.13,242L164,253.1a1,1,0,0,0-.43.75v0a0.26,0.26,0,0,0,.43.25l19.15-11.06a1,1,0,0,0,.43-0.75v0a0.26,0.26,0,0,0-.43-0.25" fill="#d9d9d9"></path><path d="M183.13,244.41L164,255.47a1,1,0,0,0-.43.75v0a0.26,0.26,0,0,0,.43.25l19.15-11.06a1,1,0,0,0,.43-0.75v0a0.26,0.26,0,0,0-.43-0.25" fill="#d9d9d9"></path><path d="M183.14,246.78L164,257.84a1,1,0,0,0-.43.75v0a0.26,0.26,0,0,0,.43.25l19.15-11.06a1,1,0,0,0,.43-0.75v0a0.26,0.26,0,0,0-.43-0.25" fill="#d9d9d9"></path><path d="M173.26,254.85l-9.38,5.42a0.68,0.68,0,0,0-.31.54v0.3a0.19,0.19,0,0,0,.31.18l9.38-5.42a0.69,0.69,0,0,0,.31-0.54V255a0.19,0.19,0,0,0-.31-0.18" fill="#d9d9d9"></path><path d="M198.28,230.92l-12.68,7.32a1.91,1.91,0,0,0-.87,1.5l0,8.83a0.53,0.53,0,0,0,.87.5l12.68-7.32a1.91,1.91,0,0,0,.87-1.5l0-8.83a0.53,0.53,0,0,0-.87-0.5" fill="#dde5ed"></path></g></g><g opacity="0.5"><path d="M254.2,177.21a0.52,0.52,0,0,1,.3.06l-0.58-.34-0.08,0a0.55,0.55,0,0,0-.22,0h0l-0.15,0-0.2.09-44.28,25.56a3.2,3.2,0,0,0-.42.37,5.79,5.79,0,0,0-.35.55s-0.12.3-.13,0.34a1.63,1.63,0,0,0-.07.43l0.1,34.45a0.68,0.68,0,0,0,.28.62l0.58,0.34a0.68,0.68,0,0,1-.28-0.62l-0.1-34.45a1.64,1.64,0,0,1,.07-0.43l0-.11a2.26,2.26,0,0,1,.1-0.23,2.36,2.36,0,0,1,.2-0.35,2.28,2.28,0,0,1,.15-0.21l0.08-.09a1.67,1.67,0,0,1,.34-0.27l44.28-25.56a0.93,0.93,0,0,1,.35-0.12h0Z" fill="#d2d2d2"></path><path d="M253.8,177.34a0.6,0.6,0,0,1,1,.56l0.1,34.45a2.15,2.15,0,0,1-1,1.68l-44.28,25.56a0.6,0.6,0,0,1-1-.56l-0.1-34.45a2.15,2.15,0,0,1,1-1.68Z" fill="#fdfdfd"></path><g style="isolation:isolate"><path d="M214.44,203.9L210.88,206a0.61,0.61,0,0,0-.27.48v4.1a0.17,0.17,0,0,0,.28.16l3.57-2.06a0.61,0.61,0,0,0,.28-0.48v-4.1a0.17,0.17,0,0,0-.28-0.16" fill="#dde5ed"></path><path d="M214.46,209.65l-3.57,2.06a0.61,0.61,0,0,0-.27.48v4.1a0.17,0.17,0,0,0,.28.16l3.57-2.06a0.61,0.61,0,0,0,.28-0.48v-4.1a0.17,0.17,0,0,0-.28-0.16" fill="#f2f2f2"></path><path d="M214.48,215.74l-3.57,2.06a0.61,0.61,0,0,0-.27.48v4.1a0.17,0.17,0,0,0,.28.16l3.57-2.06a0.61,0.61,0,0,0,.28-0.48v-4.1a0.17,0.17,0,0,0-.28-0.16" fill="#f2f2f2"></path><path d="M214.5,222.16l-3.57,2.06a0.61,0.61,0,0,0-.27.48v4.1a0.17,0.17,0,0,0,.28.16l3.57-2.06a0.61,0.61,0,0,0,.28-0.48v-4.1a0.17,0.17,0,0,0-.28-0.16" fill="#f2f2f2"></path><path d="M251.9,182.27l-34.63,20a1.73,1.73,0,0,0-.78,1.36l0,14.76a0.48,0.48,0,0,0,.79.45l34.63-20a1.73,1.73,0,0,0,.78-1.36l0-14.76a0.48,0.48,0,0,0-.79-0.45" fill="#dde5ed"></path><path d="M236.12,209.68L217,220.73a1,1,0,0,0-.43.75v0a0.26,0.26,0,0,0,.43.25l19.15-11.06a1,1,0,0,0,.43-0.75v0a0.26,0.26,0,0,0-.43-0.25" fill="#d9d9d9"></path><path d="M236.13,212L217,223.1a1,1,0,0,0-.43.75v0a0.26,0.26,0,0,0,.43.25l19.15-11.06a1,1,0,0,0,.43-0.75v0a0.26,0.26,0,0,0-.43-0.25" fill="#d9d9d9"></path><path d="M236.13,214.41L217,225.47a1,1,0,0,0-.43.75v0a0.26,0.26,0,0,0,.43.25l19.15-11.06a1,1,0,0,0,.43-0.75v0a0.26,0.26,0,0,0-.43-0.25" fill="#d9d9d9"></path><path d="M236.14,216.78L217,227.84a1,1,0,0,0-.43.75v0a0.26,0.26,0,0,0,.43.25l19.15-11.06a1,1,0,0,0,.43-0.75v0a0.26,0.26,0,0,0-.43-0.25" fill="#d9d9d9"></path><path d="M226.26,224.85l-9.38,5.42a0.68,0.68,0,0,0-.31.54v0.3a0.19,0.19,0,0,0,.31.18l9.38-5.42a0.69,0.69,0,0,0,.31-0.54V225a0.19,0.19,0,0,0-.31-0.18" fill="#d9d9d9"></path><path d="M251.28,200.92l-12.68,7.32a1.91,1.91,0,0,0-.87,1.5l0,8.83a0.53,0.53,0,0,0,.87.5l12.68-7.32a1.91,1.91,0,0,0,.87-1.5l0-8.83a0.53,0.53,0,0,0-.87-0.5" fill="#dde5ed"></path></g></g><g opacity="0.5"><path d="M307.2,147.21a0.52,0.52,0,0,1,.3.06l-0.58-.34-0.08,0a0.55,0.55,0,0,0-.22,0h0l-0.15,0-0.2.09-44.28,25.56a3.2,3.2,0,0,0-.42.37,5.79,5.79,0,0,0-.35.55s-0.12.3-.13,0.34a1.63,1.63,0,0,0-.07.43l0.1,34.45a0.68,0.68,0,0,0,.28.62l0.58,0.34a0.68,0.68,0,0,1-.28-0.62l-0.1-34.45a1.64,1.64,0,0,1,.07-0.43l0-.11a2.26,2.26,0,0,1,.1-0.23,2.36,2.36,0,0,1,.2-0.35,2.28,2.28,0,0,1,.15-0.21l0.08-.09a1.67,1.67,0,0,1,.34-0.27l44.28-25.56a0.93,0.93,0,0,1,.35-0.12h0Z" fill="#d2d2d2"></path><path d="M306.8,147.34a0.6,0.6,0,0,1,1,.56l0.1,34.45a2.15,2.15,0,0,1-1,1.68l-44.28,25.56a0.6,0.6,0,0,1-1-.56l-0.1-34.45a2.15,2.15,0,0,1,1-1.68Z" fill="#fdfdfd"></path><g style="isolation:isolate"><path d="M267.44,173.9L263.88,176a0.61,0.61,0,0,0-.27.48v4.1a0.17,0.17,0,0,0,.28.16l3.57-2.06a0.61,0.61,0,0,0,.28-0.48v-4.1a0.17,0.17,0,0,0-.28-0.16" fill="#dde5ed"></path><path d="M267.46,179.65l-3.57,2.06a0.61,0.61,0,0,0-.27.48v4.1a0.17,0.17,0,0,0,.28.16l3.57-2.06a0.61,0.61,0,0,0,.28-0.48v-4.1a0.17,0.17,0,0,0-.28-0.16" fill="#f2f2f2"></path><path d="M267.48,185.74l-3.57,2.06a0.61,0.61,0,0,0-.27.48v4.1a0.17,0.17,0,0,0,.28.16l3.57-2.06a0.61,0.61,0,0,0,.28-0.48v-4.1a0.17,0.17,0,0,0-.28-0.16" fill="#f2f2f2"></path><path d="M267.5,192.16l-3.57,2.06a0.61,0.61,0,0,0-.27.48v4.1a0.17,0.17,0,0,0,.28.16l3.57-2.06a0.61,0.61,0,0,0,.28-0.48v-4.1a0.17,0.17,0,0,0-.28-0.16" fill="#f2f2f2"></path><path d="M304.9,152.27l-34.63,20a1.73,1.73,0,0,0-.78,1.36l0,14.76a0.48,0.48,0,0,0,.79.45l34.63-20a1.73,1.73,0,0,0,.78-1.36l0-14.76a0.48,0.48,0,0,0-.79-0.45" fill="#dde5ed"></path><path d="M289.12,179.68L270,190.73a1,1,0,0,0-.43.75v0a0.26,0.26,0,0,0,.43.25l19.15-11.06a1,1,0,0,0,.43-0.75v0a0.26,0.26,0,0,0-.43-0.25" fill="#d9d9d9"></path><path d="M289.13,182L270,193.1a1,1,0,0,0-.43.75v0a0.26,0.26,0,0,0,.43.25l19.15-11.06a1,1,0,0,0,.43-0.75v0a0.26,0.26,0,0,0-.43-0.25" fill="#d9d9d9"></path><path d="M289.13,184.41L270,195.47a1,1,0,0,0-.43.75v0a0.26,0.26,0,0,0,.43.25l19.15-11.06a1,1,0,0,0,.43-0.75v0a0.26,0.26,0,0,0-.43-0.25" fill="#d9d9d9"></path><path d="M289.14,186.78L270,197.84a1,1,0,0,0-.43.75v0a0.26,0.26,0,0,0,.43.25l19.15-11.06a1,1,0,0,0,.43-0.75v0a0.26,0.26,0,0,0-.43-0.25" fill="#d9d9d9"></path><path d="M279.26,194.85l-9.38,5.42a0.68,0.68,0,0,0-.31.54v0.3a0.19,0.19,0,0,0,.31.18l9.38-5.42a0.69,0.69,0,0,0,.31-0.54V195a0.19,0.19,0,0,0-.31-0.18" fill="#d9d9d9"></path><path d="M304.28,170.92l-12.68,7.32a1.91,1.91,0,0,0-.87,1.5l0,8.83a0.53,0.53,0,0,0,.87.5l12.68-7.32a1.91,1.91,0,0,0,.87-1.5l0-8.83a0.53,0.53,0,0,0-.87-0.5" fill="#dde5ed"></path></g></g><g opacity="0.5"><path d="M360.2,117.21a0.52,0.52,0,0,1,.3.06l-0.58-.34-0.08,0a0.55,0.55,0,0,0-.22,0h0l-0.15,0-0.2.09-44.28,25.56a3.2,3.2,0,0,0-.42.37,5.79,5.79,0,0,0-.35.55s-0.12.3-.13,0.34a1.63,1.63,0,0,0-.07.43l0.1,34.45a0.68,0.68,0,0,0,.28.62l0.58,0.34a0.68,0.68,0,0,1-.28-0.62l-0.1-34.45a1.64,1.64,0,0,1,.07-0.43l0-.11a2.26,2.26,0,0,1,.1-0.23,2.36,2.36,0,0,1,.2-0.35,2.28,2.28,0,0,1,.15-0.21l0.08-.09a1.67,1.67,0,0,1,.34-0.27l44.28-25.56a0.93,0.93,0,0,1,.35-0.12h0Z" fill="#d2d2d2"></path><path d="M359.8,117.34a0.6,0.6,0,0,1,1,.56l0.1,34.45a2.15,2.15,0,0,1-1,1.68l-44.28,25.56a0.6,0.6,0,0,1-1-.56l-0.1-34.45a2.15,2.15,0,0,1,1-1.68Z" fill="#fdfdfd"></path><g style="isolation:isolate"><path d="M320.44,143.9L316.88,146a0.61,0.61,0,0,0-.27.48v4.1a0.17,0.17,0,0,0,.28.16l3.57-2.06a0.61,0.61,0,0,0,.28-0.48v-4.1a0.17,0.17,0,0,0-.28-0.16" fill="#dde5ed"></path><path d="M320.46,149.65l-3.57,2.06a0.61,0.61,0,0,0-.27.48v4.1a0.17,0.17,0,0,0,.28.16l3.57-2.06a0.61,0.61,0,0,0,.28-0.48v-4.1a0.17,0.17,0,0,0-.28-0.16" fill="#f2f2f2"></path><path d="M320.48,155.74l-3.57,2.06a0.61,0.61,0,0,0-.27.48v4.1a0.17,0.17,0,0,0,.28.16l3.57-2.06a0.61,0.61,0,0,0,.28-0.48v-4.1a0.17,0.17,0,0,0-.28-0.16" fill="#f2f2f2"></path><path d="M320.5,162.16l-3.57,2.06a0.61,0.61,0,0,0-.27.48v4.1a0.17,0.17,0,0,0,.28.16l3.57-2.06a0.61,0.61,0,0,0,.28-0.48v-4.1a0.17,0.17,0,0,0-.28-0.16" fill="#f2f2f2"></path><path d="M357.9,122.27l-34.63,20a1.73,1.73,0,0,0-.78,1.36l0,14.76a0.48,0.48,0,0,0,.79.45l34.63-20a1.73,1.73,0,0,0,.78-1.36l0-14.76a0.48,0.48,0,0,0-.79-0.45" fill="#dde5ed"></path><path d="M342.12,149.68L323,160.73a1,1,0,0,0-.43.75v0a0.26,0.26,0,0,0,.43.25l19.15-11.06a1,1,0,0,0,.43-0.75v0a0.26,0.26,0,0,0-.43-0.25" fill="#d9d9d9"></path><path d="M342.13,152L323,163.1a1,1,0,0,0-.43.75v0a0.26,0.26,0,0,0,.43.25l19.15-11.06a1,1,0,0,0,.43-0.75v0a0.26,0.26,0,0,0-.43-0.25" fill="#d9d9d9"></path><path d="M342.13,154.41L323,165.47a1,1,0,0,0-.43.75v0a0.26,0.26,0,0,0,.43.25l19.15-11.06a1,1,0,0,0,.43-0.75v0a0.26,0.26,0,0,0-.43-0.25" fill="#d9d9d9"></path><path d="M342.14,156.78L323,167.84a1,1,0,0,0-.43.75v0a0.26,0.26,0,0,0,.43.25l19.15-11.06a1,1,0,0,0,.43-0.75v0a0.26,0.26,0,0,0-.43-0.25" fill="#d9d9d9"></path><path d="M332.26,164.85l-9.38,5.42a0.68,0.68,0,0,0-.31.54v0.3a0.19,0.19,0,0,0,.31.18l9.38-5.42a0.69,0.69,0,0,0,.31-0.54V165a0.19,0.19,0,0,0-.31-0.18" fill="#d9d9d9"></path><path d="M357.28,140.92l-12.68,7.32a1.91,1.91,0,0,0-.87,1.5l0,8.83a0.53,0.53,0,0,0,.87.5l12.68-7.32a1.91,1.91,0,0,0,.87-1.5l0-8.83a0.53,0.53,0,0,0-.87-0.5" fill="#dde5ed"></path></g></g><g opacity="0.5"><path d="M148.2,189.21a0.52,0.52,0,0,1,.3.06l-0.58-.34-0.08,0a0.55,0.55,0,0,0-.22,0h0l-0.15,0-0.2.09-44.28,25.56a3.2,3.2,0,0,0-.42.37,5.79,5.79,0,0,0-.35.55s-0.12.3-.13,0.34a1.63,1.63,0,0,0-.07.43l0.1,34.45a0.68,0.68,0,0,0,.28.62l0.58,0.34a0.68,0.68,0,0,1-.28-0.62l-0.1-34.45a1.64,1.64,0,0,1,.07-0.43l0-.11a2.26,2.26,0,0,1,.1-0.23,2.36,2.36,0,0,1,.2-0.35,2.28,2.28,0,0,1,.15-0.21l0.08-.09a1.67,1.67,0,0,1,.34-0.27l44.28-25.56a0.93,0.93,0,0,1,.35-0.12h0Z" fill="#d2d2d2"></path><path d="M147.8,189.34a0.6,0.6,0,0,1,1,.56l0.1,34.45a2.15,2.15,0,0,1-1,1.68l-44.28,25.56a0.6,0.6,0,0,1-1-.56l-0.1-34.45a2.15,2.15,0,0,1,1-1.68Z" fill="#fdfdfd"></path><g style="isolation:isolate"><path d="M108.44,215.9L104.88,218a0.61,0.61,0,0,0-.27.48v4.1a0.17,0.17,0,0,0,.28.16l3.57-2.06a0.61,0.61,0,0,0,.28-0.48v-4.1a0.17,0.17,0,0,0-.28-0.16" fill="#dde5ed"></path><path d="M108.46,221.65l-3.57,2.06a0.61,0.61,0,0,0-.27.48v4.1a0.17,0.17,0,0,0,.28.16l3.57-2.06a0.61,0.61,0,0,0,.28-0.48v-4.1a0.17,0.17,0,0,0-.28-0.16" fill="#f2f2f2"></path><path d="M108.48,227.74l-3.57,2.06a0.61,0.61,0,0,0-.27.48v4.1a0.17,0.17,0,0,0,.28.16l3.57-2.06a0.61,0.61,0,0,0,.28-0.48v-4.1a0.17,0.17,0,0,0-.28-0.16" fill="#f2f2f2"></path><path d="M108.5,234.16l-3.57,2.06a0.61,0.61,0,0,0-.27.48v4.1a0.17,0.17,0,0,0,.28.16l3.57-2.06a0.61,0.61,0,0,0,.28-0.48v-4.1a0.17,0.17,0,0,0-.28-0.16" fill="#f2f2f2"></path><path d="M145.9,194.27l-34.63,20a1.73,1.73,0,0,0-.78,1.36l0,14.76a0.48,0.48,0,0,0,.79.45l34.63-20a1.73,1.73,0,0,0,.78-1.36l0-14.76a0.48,0.48,0,0,0-.79-0.45" fill="#dde5ed"></path><path d="M130.12,221.68L111,232.73a1,1,0,0,0-.43.75v0a0.26,0.26,0,0,0,.43.25l19.15-11.06a1,1,0,0,0,.43-0.75v0a0.26,0.26,0,0,0-.43-0.25" fill="#d9d9d9"></path><path d="M130.13,224L111,235.1a1,1,0,0,0-.43.75v0a0.26,0.26,0,0,0,.43.25l19.15-11.06a1,1,0,0,0,.43-0.75v0a0.26,0.26,0,0,0-.43-0.25" fill="#d9d9d9"></path><path d="M130.13,226.41L111,237.47a1,1,0,0,0-.43.75v0a0.26,0.26,0,0,0,.43.25l19.15-11.06a1,1,0,0,0,.43-0.75v0a0.26,0.26,0,0,0-.43-0.25" fill="#d9d9d9"></path><path d="M130.14,228.78L111,239.84a1,1,0,0,0-.43.75v0a0.26,0.26,0,0,0,.43.25l19.15-11.06a1,1,0,0,0,.43-0.75v0a0.26,0.26,0,0,0-.43-0.25" fill="#d9d9d9"></path><path d="M120.26,236.85l-9.38,5.42a0.68,0.68,0,0,0-.31.54v0.3a0.19,0.19,0,0,0,.31.18l9.38-5.42a0.69,0.69,0,0,0,.31-0.54V237a0.19,0.19,0,0,0-.31-0.18" fill="#d9d9d9"></path><path d="M145.28,212.92l-12.68,7.32a1.91,1.91,0,0,0-.87,1.5l0,8.83a0.53,0.53,0,0,0,.87.5l12.68-7.32a1.91,1.91,0,0,0,.87-1.5l0-8.83a0.53,0.53,0,0,0-.87-0.5" fill="#dde5ed"></path></g></g><g opacity="0.5"><path d="M201.2,159.21a0.52,0.52,0,0,1,.3.06l-0.58-.34-0.08,0a0.55,0.55,0,0,0-.22,0h0l-0.15,0-0.2.09-44.28,25.56a3.2,3.2,0,0,0-.42.37,5.79,5.79,0,0,0-.35.55s-0.12.3-.13,0.34a1.63,1.63,0,0,0-.07.43l0.1,34.45a0.68,0.68,0,0,0,.28.62l0.58,0.34a0.68,0.68,0,0,1-.28-0.62l-0.1-34.45a1.64,1.64,0,0,1,.07-0.43l0-.11a2.26,2.26,0,0,1,.1-0.23,2.36,2.36,0,0,1,.2-0.35,2.28,2.28,0,0,1,.15-0.21l0.08-.09a1.67,1.67,0,0,1,.34-0.27l44.28-25.56a0.93,0.93,0,0,1,.35-0.12h0Z" fill="#d2d2d2"></path><path d="M200.8,159.34a0.6,0.6,0,0,1,1,.56l0.1,34.45a2.15,2.15,0,0,1-1,1.68l-44.28,25.56a0.6,0.6,0,0,1-1-.56l-0.1-34.45a2.15,2.15,0,0,1,1-1.68Z" fill="#fdfdfd"></path><g style="isolation:isolate"><path d="M161.44,185.9L157.88,188a0.61,0.61,0,0,0-.27.48v4.1a0.17,0.17,0,0,0,.28.16l3.57-2.06a0.61,0.61,0,0,0,.28-0.48v-4.1a0.17,0.17,0,0,0-.28-0.16" fill="#dde5ed"></path><path d="M161.46,191.65l-3.57,2.06a0.61,0.61,0,0,0-.27.48v4.1a0.17,0.17,0,0,0,.28.16l3.57-2.06a0.61,0.61,0,0,0,.28-0.48v-4.1a0.17,0.17,0,0,0-.28-0.16" fill="#f2f2f2"></path><path d="M161.48,197.74l-3.57,2.06a0.61,0.61,0,0,0-.27.48v4.1a0.17,0.17,0,0,0,.28.16l3.57-2.06a0.61,0.61,0,0,0,.28-0.48v-4.1a0.17,0.17,0,0,0-.28-0.16" fill="#f2f2f2"></path><path d="M161.5,204.16l-3.57,2.06a0.61,0.61,0,0,0-.27.48v4.1a0.17,0.17,0,0,0,.28.16l3.57-2.06a0.61,0.61,0,0,0,.28-0.48v-4.1a0.17,0.17,0,0,0-.28-0.16" fill="#f2f2f2"></path><path d="M198.9,164.27l-34.63,20a1.73,1.73,0,0,0-.78,1.36l0,14.76a0.48,0.48,0,0,0,.79.45l34.63-20a1.73,1.73,0,0,0,.78-1.36l0-14.76a0.48,0.48,0,0,0-.79-0.45" fill="#dde5ed"></path><path d="M183.12,191.68L164,202.73a1,1,0,0,0-.43.75v0a0.26,0.26,0,0,0,.43.25l19.15-11.06a1,1,0,0,0,.43-0.75v0a0.26,0.26,0,0,0-.43-0.25" fill="#d9d9d9"></path><path d="M183.13,194L164,205.1a1,1,0,0,0-.43.75v0a0.26,0.26,0,0,0,.43.25l19.15-11.06a1,1,0,0,0,.43-0.75v0a0.26,0.26,0,0,0-.43-0.25" fill="#d9d9d9"></path><path d="M183.13,196.41L164,207.47a1,1,0,0,0-.43.75v0a0.26,0.26,0,0,0,.43.25l19.15-11.06a1,1,0,0,0,.43-0.75v0a0.26,0.26,0,0,0-.43-0.25" fill="#d9d9d9"></path><path d="M183.14,198.78L164,209.84a1,1,0,0,0-.43.75v0a0.26,0.26,0,0,0,.43.25l19.15-11.06a1,1,0,0,0,.43-0.75v0a0.26,0.26,0,0,0-.43-0.25" fill="#d9d9d9"></path><path d="M173.26,206.85l-9.38,5.42a0.68,0.68,0,0,0-.31.54v0.3a0.19,0.19,0,0,0,.31.18l9.38-5.42a0.69,0.69,0,0,0,.31-0.54V207a0.19,0.19,0,0,0-.31-0.18" fill="#d9d9d9"></path><path d="M198.28,182.92l-12.68,7.32a1.91,1.91,0,0,0-.87,1.5l0,8.83a0.53,0.53,0,0,0,.87.5l12.68-7.32a1.91,1.91,0,0,0,.87-1.5l0-8.83a0.53,0.53,0,0,0-.87-0.5" fill="#dde5ed"></path></g></g><g opacity="0.5"><path d="M254.2,129.21a0.52,0.52,0,0,1,.3.06l-0.58-.34-0.08,0a0.55,0.55,0,0,0-.22,0h0l-0.15,0-0.2.09-44.28,25.56a3.2,3.2,0,0,0-.42.37,5.79,5.79,0,0,0-.35.55s-0.12.3-.13,0.34a1.63,1.63,0,0,0-.07.43l0.1,34.45a0.68,0.68,0,0,0,.28.62l0.58,0.34a0.68,0.68,0,0,1-.28-0.62l-0.1-34.45a1.64,1.64,0,0,1,.07-0.43l0-.11a2.26,2.26,0,0,1,.1-0.23,2.36,2.36,0,0,1,.2-0.35,2.28,2.28,0,0,1,.15-0.21l0.08-.09a1.67,1.67,0,0,1,.34-0.27l44.28-25.56a0.93,0.93,0,0,1,.35-0.12h0Z" fill="#d2d2d2"></path><path d="M253.8,129.34a0.6,0.6,0,0,1,1,.56l0.1,34.45a2.15,2.15,0,0,1-1,1.68l-44.28,25.56a0.6,0.6,0,0,1-1-.56l-0.1-34.45a2.15,2.15,0,0,1,1-1.68Z" fill="#fdfdfd"></path><g style="isolation:isolate"><path d="M214.44,155.9L210.88,158a0.61,0.61,0,0,0-.27.48v4.1a0.17,0.17,0,0,0,.28.16l3.57-2.06a0.61,0.61,0,0,0,.28-0.48v-4.1a0.17,0.17,0,0,0-.28-0.16" fill="#dde5ed"></path><path d="M214.46,161.65l-3.57,2.06a0.61,0.61,0,0,0-.27.48v4.1a0.17,0.17,0,0,0,.28.16l3.57-2.06a0.61,0.61,0,0,0,.28-0.48v-4.1a0.17,0.17,0,0,0-.28-0.16" fill="#f2f2f2"></path><path d="M214.48,167.74l-3.57,2.06a0.61,0.61,0,0,0-.27.48v4.1a0.17,0.17,0,0,0,.28.16l3.57-2.06a0.61,0.61,0,0,0,.28-0.48v-4.1a0.17,0.17,0,0,0-.28-0.16" fill="#f2f2f2"></path><path d="M214.5,174.16l-3.57,2.06a0.61,0.61,0,0,0-.27.48v4.1a0.17,0.17,0,0,0,.28.16l3.57-2.06a0.61,0.61,0,0,0,.28-0.48v-4.1a0.17,0.17,0,0,0-.28-0.16" fill="#f2f2f2"></path><path d="M251.9,134.27l-34.63,20a1.73,1.73,0,0,0-.78,1.36l0,14.76a0.48,0.48,0,0,0,.79.45l34.63-20a1.73,1.73,0,0,0,.78-1.36l0-14.76a0.48,0.48,0,0,0-.79-0.45" fill="#dde5ed"></path><path d="M236.12,161.68L217,172.73a1,1,0,0,0-.43.75v0a0.26,0.26,0,0,0,.43.25l19.15-11.06a1,1,0,0,0,.43-0.75v0a0.26,0.26,0,0,0-.43-0.25" fill="#d9d9d9"></path><path d="M236.13,164L217,175.1a1,1,0,0,0-.43.75v0a0.26,0.26,0,0,0,.43.25l19.15-11.06a1,1,0,0,0,.43-0.75v0a0.26,0.26,0,0,0-.43-0.25" fill="#d9d9d9"></path><path d="M236.13,166.41L217,177.47a1,1,0,0,0-.43.75v0a0.26,0.26,0,0,0,.43.25l19.15-11.06a1,1,0,0,0,.43-0.75v0a0.26,0.26,0,0,0-.43-0.25" fill="#d9d9d9"></path><path d="M236.14,168.78L217,179.84a1,1,0,0,0-.43.75v0a0.26,0.26,0,0,0,.43.25l19.15-11.06a1,1,0,0,0,.43-0.75v0a0.26,0.26,0,0,0-.43-0.25" fill="#d9d9d9"></path><path d="M226.26,176.85l-9.38,5.42a0.68,0.68,0,0,0-.31.54v0.3a0.19,0.19,0,0,0,.31.18l9.38-5.42a0.69,0.69,0,0,0,.31-0.54V177a0.19,0.19,0,0,0-.31-0.18" fill="#d9d9d9"></path><path d="M251.28,152.92l-12.68,7.32a1.91,1.91,0,0,0-.87,1.5l0,8.83a0.53,0.53,0,0,0,.87.5l12.68-7.32a1.91,1.91,0,0,0,.87-1.5l0-8.83a0.53,0.53,0,0,0-.87-0.5" fill="#dde5ed"></path></g></g><g opacity="0.5"><path d="M307.2,99.21a0.52,0.52,0,0,1,.3.06l-0.58-.34-0.08,0a0.55,0.55,0,0,0-.22,0h0l-0.15,0-0.2.09-44.28,25.56a3.2,3.2,0,0,0-.42.37,5.79,5.79,0,0,0-.35.55s-0.12.3-.13,0.34a1.63,1.63,0,0,0-.07.43l0.1,34.45a0.68,0.68,0,0,0,.28.62l0.58,0.34a0.68,0.68,0,0,1-.28-0.62l-0.1-34.45a1.64,1.64,0,0,1,.07-0.43l0-.11a2.26,2.26,0,0,1,.1-0.23,2.36,2.36,0,0,1,.2-0.35,2.28,2.28,0,0,1,.15-0.21l0.08-.09a1.67,1.67,0,0,1,.34-0.27L306.8,99.34a0.93,0.93,0,0,1,.35-0.12h0Z" fill="#d2d2d2"></path><path d="M306.8,99.34a0.6,0.6,0,0,1,1,.56l0.1,34.45a2.15,2.15,0,0,1-1,1.68l-44.28,25.56a0.6,0.6,0,0,1-1-.56l-0.1-34.45a2.15,2.15,0,0,1,1-1.68Z" fill="#fdfdfd"></path><g style="isolation:isolate"><path d="M267.44,125.9L263.88,128a0.61,0.61,0,0,0-.27.48v4.1a0.17,0.17,0,0,0,.28.16l3.57-2.06a0.61,0.61,0,0,0,.28-0.48v-4.1a0.17,0.17,0,0,0-.28-0.16" fill="#dde5ed"></path><path d="M267.46,131.65l-3.57,2.06a0.61,0.61,0,0,0-.27.48v4.1a0.17,0.17,0,0,0,.28.16l3.57-2.06a0.61,0.61,0,0,0,.28-0.48v-4.1a0.17,0.17,0,0,0-.28-0.16" fill="#f2f2f2"></path><path d="M267.48,137.74l-3.57,2.06a0.61,0.61,0,0,0-.27.48v4.1a0.17,0.17,0,0,0,.28.16l3.57-2.06a0.61,0.61,0,0,0,.28-0.48v-4.1a0.17,0.17,0,0,0-.28-0.16" fill="#f2f2f2"></path><path d="M267.5,144.16l-3.57,2.06a0.61,0.61,0,0,0-.27.48v4.1a0.17,0.17,0,0,0,.28.16l3.57-2.06a0.61,0.61,0,0,0,.28-0.48v-4.1a0.17,0.17,0,0,0-.28-0.16" fill="#f2f2f2"></path><path d="M304.9,104.27l-34.63,20a1.73,1.73,0,0,0-.78,1.36l0,14.76a0.48,0.48,0,0,0,.79.45l34.63-20a1.73,1.73,0,0,0,.78-1.36l0-14.76a0.48,0.48,0,0,0-.79-0.45" fill="#dde5ed"></path><path d="M289.12,131.68L270,142.73a1,1,0,0,0-.43.75v0a0.26,0.26,0,0,0,.43.25l19.15-11.06a1,1,0,0,0,.43-0.75v0a0.26,0.26,0,0,0-.43-0.25" fill="#d9d9d9"></path><path d="M289.13,134L270,145.1a1,1,0,0,0-.43.75v0a0.26,0.26,0,0,0,.43.25l19.15-11.06a1,1,0,0,0,.43-0.75v0a0.26,0.26,0,0,0-.43-0.25" fill="#d9d9d9"></path><path d="M289.13,136.41L270,147.47a1,1,0,0,0-.43.75v0a0.26,0.26,0,0,0,.43.25l19.15-11.06a1,1,0,0,0,.43-0.75v0a0.26,0.26,0,0,0-.43-0.25" fill="#d9d9d9"></path><path d="M289.14,138.78L270,149.84a1,1,0,0,0-.43.75v0a0.26,0.26,0,0,0,.43.25l19.15-11.06a1,1,0,0,0,.43-0.75v0a0.26,0.26,0,0,0-.43-0.25" fill="#d9d9d9"></path><path d="M279.26,146.85l-9.38,5.42a0.68,0.68,0,0,0-.31.54v0.3a0.19,0.19,0,0,0,.31.18l9.38-5.42a0.69,0.69,0,0,0,.31-0.54V147a0.19,0.19,0,0,0-.31-0.18" fill="#d9d9d9"></path><path d="M304.28,122.92l-12.68,7.32a1.91,1.91,0,0,0-.87,1.5l0,8.83a0.53,0.53,0,0,0,.87.5l12.68-7.32a1.91,1.91,0,0,0,.87-1.5l0-8.83a0.53,0.53,0,0,0-.87-0.5" fill="#dde5ed"></path></g></g><g opacity="0.5"><path d="M360.2,69.21a0.52,0.52,0,0,1,.3.06l-0.58-.34-0.08,0a0.55,0.55,0,0,0-.22,0h0l-0.15,0-0.2.09L314.94,94.56a3.2,3.2,0,0,0-.42.37,5.79,5.79,0,0,0-.35.55s-0.12.3-.13,0.34a1.63,1.63,0,0,0-.07.43l0.1,34.45a0.68,0.68,0,0,0,.28.62l0.58,0.34a0.68,0.68,0,0,1-.28-0.62l-0.1-34.45a1.64,1.64,0,0,1,.07-0.43l0-.11a2.26,2.26,0,0,1,.1-0.23,2.36,2.36,0,0,1,.2-0.35,2.28,2.28,0,0,1,.15-0.21l0.08-.09a1.67,1.67,0,0,1,.34-0.27L359.8,69.34a0.93,0.93,0,0,1,.35-0.12h0Z" fill="#d2d2d2"></path><path d="M359.8,69.34a0.6,0.6,0,0,1,1,.56l0.1,34.45a2.15,2.15,0,0,1-1,1.68l-44.28,25.56a0.6,0.6,0,0,1-1-.56l-0.1-34.45a2.15,2.15,0,0,1,1-1.68Z" fill="#fdfdfd"></path><g style="isolation:isolate"><path d="M320.44,95.9L316.88,98a0.61,0.61,0,0,0-.27.48v4.1a0.17,0.17,0,0,0,.28.16l3.57-2.06a0.61,0.61,0,0,0,.28-0.48v-4.1a0.17,0.17,0,0,0-.28-0.16" fill="#dde5ed"></path><path d="M320.46,101.65l-3.57,2.06a0.61,0.61,0,0,0-.27.48v4.1a0.17,0.17,0,0,0,.28.16l3.57-2.06a0.61,0.61,0,0,0,.28-0.48v-4.1a0.17,0.17,0,0,0-.28-0.16" fill="#f2f2f2"></path><path d="M320.48,107.74l-3.57,2.06a0.61,0.61,0,0,0-.27.48v4.1a0.17,0.17,0,0,0,.28.16l3.57-2.06a0.61,0.61,0,0,0,.28-0.48v-4.1a0.17,0.17,0,0,0-.28-0.16" fill="#f2f2f2"></path><path d="M320.5,114.16l-3.57,2.06a0.61,0.61,0,0,0-.27.48v4.1a0.17,0.17,0,0,0,.28.16l3.57-2.06a0.61,0.61,0,0,0,.28-0.48v-4.1a0.17,0.17,0,0,0-.28-0.16" fill="#f2f2f2"></path><path d="M357.9,74.27l-34.63,20a1.73,1.73,0,0,0-.78,1.36l0,14.76a0.48,0.48,0,0,0,.79.45l34.63-20a1.73,1.73,0,0,0,.78-1.36l0-14.76a0.48,0.48,0,0,0-.79-0.45" fill="#dde5ed"></path><path d="M342.12,101.68L323,112.73a1,1,0,0,0-.43.75v0a0.26,0.26,0,0,0,.43.25l19.15-11.06a1,1,0,0,0,.43-0.75v0a0.26,0.26,0,0,0-.43-0.25" fill="#d9d9d9"></path><path d="M342.13,104L323,115.1a1,1,0,0,0-.43.75v0a0.26,0.26,0,0,0,.43.25l19.15-11.06a1,1,0,0,0,.43-0.75v0a0.26,0.26,0,0,0-.43-0.25" fill="#d9d9d9"></path><path d="M342.13,106.41L323,117.47a1,1,0,0,0-.43.75v0a0.26,0.26,0,0,0,.43.25l19.15-11.06a1,1,0,0,0,.43-0.75v0a0.26,0.26,0,0,0-.43-0.25" fill="#d9d9d9"></path><path d="M342.14,108.78L323,119.84a1,1,0,0,0-.43.75v0a0.26,0.26,0,0,0,.43.25l19.15-11.06a1,1,0,0,0,.43-0.75v0a0.26,0.26,0,0,0-.43-0.25" fill="#d9d9d9"></path><path d="M332.26,116.85l-9.38,5.42a0.68,0.68,0,0,0-.31.54v0.3a0.19,0.19,0,0,0,.31.18l9.38-5.42a0.69,0.69,0,0,0,.31-0.54V117a0.19,0.19,0,0,0-.31-0.18" fill="#d9d9d9"></path><path d="M357.28,92.92l-12.68,7.32a1.91,1.91,0,0,0-.87,1.5l0,8.83a0.53,0.53,0,0,0,.87.5l12.68-7.32a1.91,1.91,0,0,0,.87-1.5l0-8.83a0.53,0.53,0,0,0-.87-0.5" fill="#dde5ed"></path></g></g><polygon points="230.14 373.27 228.25 374.92 325.01 430.75 397.66 387.5 397.66 385.72 302.89 329.68 230.14 373.27" opacity="0.2"></polygon><g style="isolation:isolate"><polygon points="397.66 384.45 397.66 385.72 324.83 428.04 324.89 426.75 397.66 384.45" fill="#eee"></polygon><polygon points="324.89 426.75 324.83 428.04 230 373.29 230.06 372 324.89 426.75" fill="#dcdcdc"></polygon><polygon points="397.66 384.45 324.89 426.75 230.06 372 302.89 329.68 397.66 384.45" fill="#b0b0b0"></polygon></g><path d="M374,336.31a13.7,13.7,0,0,0-5.51-6.85c-1.64-.95-3.29-1.18-4.52-0.46l-72.83,42.32c1.24-.72,2.88-0.48,4.52.46a13.7,13.7,0,0,1,5.51,6.85l23.74,48.24,72.73-42.42Z" fill="#fff"></path><path d="M295.68,371.78a13.7,13.7,0,0,1,5.51,6.85l23.74,48.24-12-6.95-22.81-47.67C291.38,370.52,293.53,370.54,295.68,371.78Z" fill="#dcdcdc"></path><g style="isolation:isolate"><path d="M365.58,338.4l-56.84,32.82c-1.88,1.09-2.45,4-1.25,6.45l17.76,36.95c1.19,2.48,3.68,3.6,5.56,2.51l56.84-32.82c1.89-1.09,2.45-4,1.25-6.45l-17.76-36.95C370,338.43,367.47,337.31,365.58,338.4Z" fill="#6b7278"></path></g><path d="M335.55,367.33l-19.72,11.39a1.16,1.16,0,0,0-.29,1.5,1,1,0,0,0,1.3.59l19.72-11.39a1.17,1.17,0,0,0,.29-1.51,1,1,0,0,0-1.29-.58" fill="#cbffd8"></path><path d="M337.94,372.3l-19.72,11.39a1.16,1.16,0,0,0-.29,1.5,1,1,0,0,0,1.3.59l19.72-11.39a1.17,1.17,0,0,0,.29-1.51,1,1,0,0,0-1.29-.58" fill="#ff9d9f"></path><path d="M340.32,377.26L320.6,388.65a1.16,1.16,0,0,0-.29,1.5,1,1,0,0,0,1.3.59l19.72-11.39a1.17,1.17,0,0,0,.29-1.51,1,1,0,0,0-1.29-.58" fill="#6caeff"></path><path d="M332.06,388.38L323,393.61a1.16,1.16,0,0,0-.29,1.5,1,1,0,0,0,1.3.59l9.07-5.23a1.17,1.17,0,0,0,.29-1.51,1,1,0,0,0-1.3-.58" fill="#fff"></path><g style="isolation:isolate"><path d="M326.21,398.38a1.83,1.83,0,0,0-.46,2.38,1.53,1.53,0,0,0,2.05.93,1.84,1.84,0,0,0,.46-2.38,1.54,1.54,0,0,0-2.05-.93" fill="#fff"></path></g><g style="isolation:isolate"><path d="M329.61,404.06a1.83,1.83,0,0,0-.46,2.38,1.54,1.54,0,0,0,2.05.93,1.84,1.84,0,0,0,.46-2.38,1.53,1.53,0,0,0-2.06-.93" fill="#ff9d97"></path></g><path d="M352.77,378.52c-1.52.88-3.54,0-4.5-2L344,367.65c-1-2-.51-4.35,1-5.23l20.53-11.85c1.52-.88,3.54,0,4.5,2l4.25,8.83c1,2,.51,4.34-1,5.22l-20.53,11.85m12.37-28.84L344.6,361.53c-1.9,1.1-2.46,4-1.26,6.52l4.25,8.83c1.2,2.49,3.72,3.63,5.61,2.54l20.53-11.85c1.9-1.1,2.47-4,1.27-6.51l-4.25-8.83c-1.2-2.49-3.73-3.64-5.62-2.54" fill="#9098a1"></path><g style="isolation:isolate"><path d="M355.87,372.5c-1.93,1.11-4.48,0-5.69-2.57s-0.64-5.49,1.28-6.6,4.47,0,5.69,2.57,0.64,5.49-1.28,6.6M351,362.3c-2.35,1.36-3.06,5-1.57,8.08s4.61,4.5,7,3.14,3.05-5,1.57-8.06-4.61-4.5-7-3.15" fill="#b6ff6f"></path></g><path d="M365,357.48l-5.72,3.3a0.35,0.35,0,0,0-.09.45,0.3,0.3,0,0,0,.39.18l5.72-3.3a0.35,0.35,0,0,0,.08-0.46,0.29,0.29,0,0,0-.39-0.18" fill="#fff"></path><path d="M365.9,359.35l-5.72,3.3a0.36,0.36,0,0,0-.09.45,0.3,0.3,0,0,0,.39.18l5.72-3.3a0.35,0.35,0,0,0,.08-0.46,0.29,0.29,0,0,0-.39-0.18" fill="#fff"></path><path d="M363.77,363L361,364.56a0.26,0.26,0,0,0-.06.33l0.09,0.19a0.21,0.21,0,0,0,.28.13l2.76-1.59a0.25,0.25,0,0,0,.06-0.33l-0.09-.19a0.21,0.21,0,0,0-.28-0.13" fill="#fff"></path><path d="M352.1,385.6a0.57,0.57,0,0,1-.28-1.06l4.44-2.48a0.57,0.57,0,0,1,.55,1l-4.44,2.48A0.57,0.57,0,0,1,352.1,385.6Z" fill="#5ef3ff"></path><path d="M353.66,389.34a0.5,0.5,0,0,1-.24-0.94l25.91-14.49a0.5,0.5,0,1,1,.49.87L353.9,389.27A0.5,0.5,0,0,1,353.66,389.34Z" fill="#9098a1"></path><path d="M354.79,391.61a0.5,0.5,0,0,1-.24-0.94l25.91-14.49a0.5,0.5,0,0,1,.49.87L355,391.54A0.5,0.5,0,0,1,354.79,391.61Z" fill="#9098a1"></path><rect x="282.91" y="292.03" width="12.87" height="68.78" rx="6.18" ry="6.18" fill="#e6e6e6"></rect><path d="M282.91,314.2a13.89,13.89,0,0,0,12.87-3.94V293.71l-12.86,6.91V314.2Z" fill="#c9c9c9"></path><path d="M330.48,177.58l-6.73-3.91c8.22,4.77,12.2,13.74,13.48,22.82,1.4,10,.09,20.27-2.56,29.9a109.76,109.76,0,0,1-15.47,32.69c-6.8,9.92-15,19-25,25.82-9.79,6.63-22.68,12-34.51,7.9A68.66,68.66,0,0,1,253,289c2.77,1.61,7.12,6.59,10,8,6.65,3.26,14.71,2.9,21.7.86,4.06-1.19,8.53-4,12.19-6.14l-0.11-.06c0.52,0.08,1.34-.67,1.75-0.92s1.07-.68,1.6-1q1.85-1.22,3.64-2.54c2.16-1.6,4.24-3.32,6.24-5.13a100.12,100.12,0,0,0,10.55-11.17,116.2,116.2,0,0,0,16.1-26.49c2.5-5.68,4.6-10.49,6-16.53,0,0.08,1.88-1.89,1-2,1.6-6.78,1.38-12.64,1.13-19.62s-1.73-14.38-5.66-20.38a26,26,0,0,0-8.69-8.27h0Z" fill="#f2f2f2"></path><path d="M246,261c1.11-18.18,8.11-34.85,18-50,5-7.66,10.23-15.62,17-21.84s14.25-11.67,22.74-15c9.07-3.55,19.66-4.8,28.43.3-2.73-1.58-5.41-3.3-8.22-4.74-6.52-3.32-14.1-3.39-21.09-1.66-15.06,3.73-27.86,14.64-37.67,26.23a120.75,120.75,0,0,0-22.34,39.82c-4.56,13.82-7.06,29.85-2.4,44a30.73,30.73,0,0,0,8.76,13.79c2.86,2.47,6.36,4.19,9.61,6.08l1.17,0.68c-9.05-5.26-13.28-15.58-14.47-25.57a65.08,65.08,0,0,1-.27-11.68C245.26,260.58,246,261.37,246,261Z" fill="#fff"></path><path d="M295.86,178c28.11-16.23,51-3.16,51.14,29.14s-22.7,71.78-50.81,88-51,3.15-51.14-29.14S267.76,194.21,295.86,178Zm0.32,113.88c26.54-15.32,48.06-52.6,48-83.1s-21.75-42.85-48.29-27.53-48.06,52.61-48,83.11,21.75,42.84,48.29,27.52" fill="#e3e3e3"></path><path d="M259.59,247a1.25,1.25,0,0,1-1.19-1.63l0.11-.33c3.56-11.25,14.84-39.37,42.48-57.41a1.25,1.25,0,1,1,1.37,2.09c-27,17.6-38,45.08-41.46,56.07l-0.11.34A1.25,1.25,0,0,1,259.59,247Z" fill="#f3f7ff"></path><g opacity="0.5"><path d="M293.14,175c-27.37,15.8-49.49,54.11-49.4,85.56s22.35,44.13,49.72,28.33,49.49-54.11,49.4-85.55S320.51,159.18,293.14,175Z" fill="#f4f8ff"></path></g></svg>